<?xml version="1.0" encoding="UTF-8"?>
<!DOCTYPE svg PUBLIC "-//W3C//DTD SVG 1.1//EN" "http://www.w3.org/Graphics/SVG/1.1/DTD/svg11.dtd">
<!-- Creator: CorelDRAW 2018 (64-Bit) -->
<svg xmlns="http://www.w3.org/2000/svg" xml:space="preserve" width="217.393mm" height="223.656mm" version="1.1" style="shape-rendering:geometricPrecision; text-rendering:geometricPrecision; image-rendering:optimizeQuality; fill-rule:evenodd; clip-rule:evenodd"
viewBox="0 0 3060.2 3148.37"
 xmlns:xlink="http://www.w3.org/1999/xlink">
 <defs>
  <style type="text/css">
   <![CDATA[
    .fil1 {fill:#F0F2F2}
    .fil3 {fill:white}
    .fil0 {fill:#07BA07;fill-rule:nonzero}
    .fil5 {fill:#42599E;fill-rule:nonzero}
    .fil11 {fill:#4680C1;fill-rule:nonzero}
    .fil2 {fill:#77499A;fill-rule:nonzero}
    .fil10 {fill:#B5CFE4;fill-rule:nonzero}
    .fil9 {fill:#D1E4F0;fill-rule:nonzero}
    .fil6 {fill:#F0F2F2;fill-rule:nonzero}
    .fil4 {fill:white;fill-rule:nonzero}
    .fil7 {fill:url(#id0)}
    .fil8 {fill:url(#id1);fill-rule:nonzero}
   ]]>
  </style>
  <linearGradient id="id0" gradientUnits="userSpaceOnUse" x1="1500.93" y1="3196.75" x2="1925.97" y2="2157.26">
   <stop offset="0" style="stop-opacity:1; stop-color:#FFC657"/>
   <stop offset="0.321569" style="stop-opacity:1; stop-color:#F62A36"/>
   <stop offset="0.631373" style="stop-opacity:1; stop-color:#C81F90"/>
   <stop offset="0.980392" style="stop-opacity:1; stop-color:#3442DF"/>
   <stop offset="1" style="stop-opacity:1; stop-color:#3442DF"/>
  </linearGradient>
  <linearGradient id="id1" gradientUnits="userSpaceOnUse" x1="1191.45" y1="0" x2="1191.45" y2="769.53">
   <stop offset="0" style="stop-opacity:1; stop-color:#42BCE8"/>
   <stop offset="1" style="stop-opacity:1; stop-color:#23A7DB"/>
  </linearGradient>
 </defs>
 <g id="Слой_x0020_1">
  <metadata id="CorelCorpID_0Corel-Layer"/>
  <g id="_2549855587936">
   <path class="fil0" d="M-0 1195.8c0,-213.28 172.9,-386.17 386.17,-386.17 213.28,0 386.18,172.9 386.18,386.17 0,213.28 -172.9,386.18 -386.18,386.18 -213.27,0 -386.17,-172.9 -386.17,-386.18z"/>
   <g>
    <path class="fil1" d="M495.13 1240.7c-5.6,-3.07 -33.13,-17.93 -38.29,-20.02 -5.16,-2.1 -8.93,-3.19 -12.96,2.38 -4.01,5.55 -15.44,18 -18.89,21.68 -3.48,3.7 -6.82,4.04 -12.44,0.96 -5.58,-3.07 -23.75,-9.79 -44.82,-30.04 -16.4,-15.76 -27.15,-34.87 -30.26,-40.71 -3.13,-5.83 -0.02,-8.81 2.94,-11.55 2.67,-2.47 5.96,-6.46 8.95,-9.68 2.96,-3.22 4.01,-5.56 6.05,-9.3 2.05,-3.73 1.22,-7.1 -0.11,-10.01 -1.32,-2.9 -11.68,-31.42 -16,-43.02 -4.33,-11.59 -9.15,-9.87 -12.48,-10 -3.33,-0.11 -7.11,-0.73 -10.92,-0.89 -3.82,-0.14 -10.05,1.06 -15.48,6.57 -5.45,5.51 -20.72,18.76 -21.76,46.85 -1.06,28.07 18.37,55.98 21.09,59.88 2.7,3.92 37.1,64.79 94.23,89.82 57.17,25.03 57.48,17.41 67.96,16.84 10.5,-0.56 34.28,-12.56 39.55,-25.69 5.25,-13.14 5.68,-24.57 4.34,-27 -1.34,-2.43 -5.09,-4.01 -10.69,-7.07zm-104.84 135.32l0 0c-37.78,0 -73,-11.34 -102.38,-30.78l-71.53 22.9 23.25 -69.12c-22.28,-30.68 -35.44,-68.37 -35.44,-109.12 0,-102.64 83.49,-186.12 186.09,-186.12 102.64,0 186.13,83.48 186.13,186.12 0,102.62 -83.49,186.12 -186.13,186.12zm0 -409.69l0 0c-123.45,0 -223.55,100.09 -223.55,223.57 0,42.24 11.73,81.74 32.09,115.45l-40.36 119.94 123.77 -39.62c32.04,17.71 68.87,27.81 108.05,27.81 123.5,0 223.59,-100.1 223.59,-223.57 0,-123.48 -100.09,-223.57 -223.59,-223.57z"/>
   </g>
  </g>
  <g id="_2549855524736">
   <path class="fil2" d="M87.26 2298.39c0,-213.28 172.9,-386.17 386.17,-386.17 213.28,0 386.18,172.9 386.18,386.17 0,213.28 -172.9,386.18 -386.18,386.18 -213.28,0 -386.17,-172.9 -386.17,-386.18z"/>
   <path class="fil3" d="M548.79 2430.25c19.58,0.2 42.5,-18.66 49.13,-37.38 6.38,-18.01 -7.1,-25.16 -17.76,-33.73 -7.85,-6.32 -16.23,-11.99 -24.49,-17.78 -16.46,-11.56 -31.52,-12.46 -43.8,6.14 -6.9,10.45 -16.55,10.9 -26.65,6.32 -27.84,-12.62 -49.33,-32.07 -61.92,-60.36 -5.57,-12.52 -5.5,-23.74 7.54,-32.59 6.89,-4.68 13.85,-10.22 13.29,-20.45 -0.73,-13.34 -33.11,-57.92 -45.9,-62.62 -5.3,-1.95 -10.57,-1.82 -15.95,-0.01 -29.99,10.08 -42.41,34.75 -30.52,63.95 35.49,87.13 97.95,147.79 183.92,184.81 4.9,2.11 10.35,2.95 13.1,3.71z"/>
   <path class="fil3" d="M485.59 2173.11c-4.56,0.66 -13.98,-3.14 -14.57,7.07 -0.4,6.88 7.54,5.75 12.75,6.56 62.85,9.67 91.84,39.55 99.85,102.86 0.74,5.85 -1.44,14.65 6.9,14.81 8.72,0.17 6.62,-8.5 6.69,-14.36 0.73,-59.63 -51.25,-114.9 -111.62,-116.93z"/>
   <path class="fil3" d="M566.21 2279.36c0.31,-36.97 -31.37,-70.62 -70.15,-75.28 -6.04,-0.73 -14.03,-3.58 -15.44,4.81 -1.48,8.81 7.42,7.91 13.13,9.19 38.82,8.67 52.34,22.81 58.73,61.31 0.93,5.62 -0.92,14.35 8.62,12.9 7.07,-1.07 4.52,-8.57 5.11,-12.94z"/>
   <path class="fil3" d="M536.72 2272.35c0.28,-17.85 -19.88,-38.46 -37.09,-38.04 -4.03,0.1 -7.99,0.53 -9.48,4.85 -2.22,6.45 2.46,7.98 7.23,8.75 15.93,2.56 24.31,11.94 25.9,27.83 0.43,4.31 3.17,7.81 7.33,7.31 5.77,-0.69 6.29,-5.82 6.12,-10.7z"/>
   <path class="fil4" d="M629.95 2099.11c-40.72,-20.07 -88.98,-29.19 -151.91,-29.19l-4.27 0c-3.7,0 -7.55,0 -11.25,0.14l-5.98 0.14c-51.54,1.28 -109.76,2.71 -155.04,36.02 -59.08,43.71 -65.77,124.57 -65.77,181.66 0,116.6 38.58,187.92 114.75,212.7l0 43.42c1,23.06 6.69,25.91 9.68,27.48 1.28,0.57 2.99,1.42 5.55,1.42 8.4,0 26.19,-8.68 71.61,-60.79l2.99 0c8.83,0 17.8,-0.14 26.91,-0.43l8.26 -0.14c25.2,-0.57 51.25,-1.28 77.3,-4.7 31.46,-4.13 77.02,-13.1 109.48,-44.28 49.4,-47.55 49.4,-127.13 49.4,-174.68 0,-51.82 0,-148.49 -81.72,-188.78zm7.69 337.7l0 0c-24.91,23.92 -63.07,31.32 -89.55,34.74 -24.06,3.13 -48.12,3.84 -73.46,4.41l-8.4 0.14 -1.99 0c-7.83,0.28 -15.38,0.43 -23.06,0.43 -9.96,11.96 -20.36,23.92 -30.18,34.74 -16.37,18.08 -31.32,32.89 -40,38.87 -0.28,-2.14 -0.43,-4.41 -0.57,-6.55l0 -37.59 0 -36.59c-0.29,0 -0.57,0 -0.85,-0.14 -6.69,-1.71 -13.1,-3.99 -19.08,-6.69 -53.25,-23.06 -79.16,-80.44 -79.16,-174.68 0,-53.53 5.84,-119.31 51.4,-153.05 36.16,-26.62 88.41,-27.9 134.68,-29.04l6.12 -0.14c3.56,-0.14 7.12,-0.14 10.53,-0.14 58.52,-0.43 103.65,7.55 140.24,25.48 57.09,28.19 61.78,95.81 61.78,156.89 0,56.66 -2.85,114.75 -38.44,148.91z"/>
  </g>
  <g id="_2549855526272">
   <path class="fil5" d="M2287.85 1878.29c0,-213.28 172.89,-386.17 386.17,-386.17 213.28,0 386.18,172.9 386.18,386.17 0,213.28 -172.89,386.18 -386.18,386.18 -213.28,0 -386.17,-172.9 -386.17,-386.18z"/>
   <path class="fil6" d="M2816.65 1902.22l-76.17 0 0 235.81 -109.52 0 0 -235.81 -68.63 0 0 -91.98 72.17 0 0 -66.39c0,-47.48 20.04,-121.82 107.05,-121.82l89.43 0.38 0 84.09 -64.89 0c-10.64,0 -25.61,6.67 -25.61,29.31l0 74.53 86.71 0 -10.54 91.88z"/>
  </g>
  <g id="_2549855526368">
   <path class="fil7" d="M2062.06 2716.37c3.64,30.44 3.64,61.21 0,91.65 -21.14,176.96 -160.66,316.47 -337.63,337.62 -30.45,3.63 -61.21,3.63 -91.64,0 -176.97,-21.15 -316.47,-160.66 -337.63,-337.62 -3.63,-30.44 -3.63,-61.21 0,-91.65 21.16,-176.96 160.66,-316.48 337.63,-337.62 30.43,-3.63 61.19,-3.63 91.64,0 176.97,21.15 316.49,160.66 337.63,337.62z"/>
   <path class="fil4" d="M1918.84 2645.42c-3.3,-32.34 -15.68,-60.96 -39.73,-83.87 -25.28,-24.13 -56.22,-34.79 -90.11,-36.6 -57.76,-3.15 -194.92,-5.14 -243.09,2.72 -55.02,8.97 -91.11,41.08 -106.31,95.44 -11.71,41.82 -9.38,234.54 -2.55,275.88 9.31,56.52 42.71,92.76 98.73,107.19 38.78,10.01 229.29,8.72 272.04,1.79 56.57,-9.14 92.97,-42.36 107.66,-98.28 11.23,-42.92 7.32,-225.55 3.37,-264.28zm-45.23 245.58l0 0c-6.58,42.93 -35.06,69.52 -78.21,74.23 -39.65,4.35 -216.69,6.74 -253.46,-3.55 -35.16,-9.83 -55.28,-34.01 -61.12,-69.42 -5.58,-33.82 -6.96,-202.79 -0.08,-248.01 6.48,-42.56 34.96,-69.11 77.88,-73.91 43.53,-4.88 200.21,-5.42 241.91,0.98 42.83,6.57 69.39,35.13 74.09,78.35 4.38,40.33 5.63,197.98 -1.01,241.33zm-196.46 -249.16l0 0c-69.6,-0.04 -126.05,56.35 -126.08,125.95 -0.05,69.59 56.33,126.04 125.95,126.07 69.58,0.04 126.04,-56.35 126.07,-125.94 0.03,-69.59 -56.35,-126.05 -125.94,-126.08zm-0.87 207.41l0 0c-45.01,-0.4 -81.16,-37.21 -80.75,-82.21 0.39,-45.01 37.21,-81.16 82.2,-80.76 45.01,0.4 81.17,37.21 80.77,82.22 -0.42,45.01 -37.22,81.16 -82.22,80.75zm161.3 -212.18l0 0c-0.03,16.3 -13.28,29.47 -29.57,29.43 -16.3,-0.04 -29.47,-13.28 -29.43,-29.58 0.05,-16.3 13.28,-29.47 29.58,-29.43 16.3,0.04 29.46,13.28 29.43,29.58z"/>
  </g>
  <g id="_2549855529888">
   <path class="fil8" d="M1577.63 386.18c0,213.28 -172.9,386.17 -386.18,386.17 -213.28,0 -386.17,-172.9 -386.17,-386.17 0,-213.28 172.89,-386.18 386.17,-386.18 213.28,0 386.18,172.9 386.18,386.18z"/>
   <g>
    <path class="fil4" d="M1379.36 222.14l-68.97 347.76c0,0 -9.65,24.12 -36.17,12.54l-159.17 -122.03 -57.88 -27.97 -97.43 -32.8c0,0 -14.95,-5.31 -16.4,-16.88 -1.45,-11.58 16.88,-17.85 16.88,-17.85l387.31 -151.93c0,0 31.83,-13.99 31.83,9.17z"/>
    <path class="fil9" d="M1102.81 566c0,0 -4.65,-0.43 -10.43,-18.77 -5.79,-18.33 -35.21,-114.79 -35.21,-114.79l233.93 -148.56c0,0 13.51,-8.2 13.02,0 0,0 2.41,1.45 -4.82,8.2 -7.23,6.75 -183.77,165.44 -183.77,165.44l-12.72 108.48z"/>
    <path class="fil10" d="M1176.07 507.2l-62.96 57.4c0,0 -4.92,3.73 -10.31,1.39l12.06 -106.62 61.21 47.82z"/>
   </g>
  </g>
  <g id="_2549855532096">
   <path class="fil11" d="M2723.23 725.25c0,213.28 -172.89,386.17 -386.17,386.17 -213.28,0 -386.17,-172.89 -386.17,-386.17 0,-213.28 172.9,-386.18 386.17,-386.18 213.28,0 386.17,172.9 386.17,386.18z"/>
   <path class="fil3" d="M2567.84 607.08c3.51,-11.68 0,-20.27 -16.68,-20.27l-55.16 0c-14.03,0 -20.49,7.42 -23.99,15.6 0,0 -28.05,68.37 -67.79,112.78 -12.85,12.86 -18.7,16.95 -25.71,16.95 -3.5,0 -8.58,-4.09 -8.58,-15.78l0 -109.28c0,-14.02 -4.07,-20.27 -15.76,-20.27l-86.68 0c-8.76,0 -14.04,6.51 -14.04,12.68 0,13.3 19.87,16.36 21.92,53.76l0 81.22c0,17.81 -3.22,21.04 -10.23,21.04 -18.7,0 -64.18,-68.68 -91.16,-147.26 -5.29,-15.28 -10.59,-21.44 -24.68,-21.44l-55.16 0c-15.76,0 -18.91,7.42 -18.91,15.6 0,14.61 18.7,87.07 87.07,182.9 45.58,65.44 109.8,100.92 168.23,100.92 35.06,0 39.4,-7.88 39.4,-21.45l0 -49.46c0,-15.77 3.32,-18.91 14.43,-18.91 8.18,0 22.2,4.08 54.93,35.64 37.4,37.4 43.56,54.17 64.6,54.17l55.16 0c15.75,0 23.63,-7.88 19.09,-23.43 -4.98,-15.5 -22.83,-37.98 -46.52,-64.64 -12.86,-15.2 -32.15,-31.55 -37.99,-39.74 -8.18,-10.51 -5.84,-15.19 0,-24.54 0,0 67.21,-94.67 74.21,-126.81z"/>
  </g>
 </g>
</svg>
