<?xml version="1.0" encoding="UTF-8"?>
<!DOCTYPE svg PUBLIC "-//W3C//DTD SVG 1.1//EN" "http://www.w3.org/Graphics/SVG/1.1/DTD/svg11.dtd">
<!-- Creator: CorelDRAW 2018 (64-Bit) -->
<svg xmlns="http://www.w3.org/2000/svg" xml:space="preserve" width="54.8665mm" height="54.8669mm" version="1.1" style="shape-rendering:geometricPrecision; text-rendering:geometricPrecision; image-rendering:optimizeQuality; fill-rule:evenodd; clip-rule:evenodd"
viewBox="0 0 246.89 246.9"
 xmlns:xlink="http://www.w3.org/1999/xlink">
 <defs>
  <style type="text/css">
   <![CDATA[
    .fil0 {fill:#42599E;fill-rule:nonzero}
    .fil1 {fill:#F0F2F2;fill-rule:nonzero}
   ]]>
  </style>
 </defs>
 <g id="Слой_x0020_1">
  <metadata id="CorelCorpID_0Corel-Layer"/>
  <g id="_2549846657264">
   <path class="fil0" d="M-0 123.45c0,-68.18 55.27,-123.45 123.45,-123.45 68.18,0 123.45,55.27 123.45,123.45 0,68.18 -55.27,123.45 -123.45,123.45 -68.18,0 -123.45,-55.27 -123.45,-123.45z"/>
   <path class="fil1" d="M169.04 131.1l-24.35 0 0 75.38 -35.01 0 0 -75.38 -21.94 0 0 -29.4 23.07 0 0 -21.22c0,-15.18 6.41,-38.94 34.22,-38.94l28.59 0.12 0 26.88 -20.74 0c-3.4,0 -8.19,2.13 -8.19,9.37l0 23.82 27.72 0 -3.37 29.37z"/>
  </g>
 </g>
</svg>
