<?xml version="1.0" encoding="UTF-8"?>
<!DOCTYPE svg PUBLIC "-//W3C//DTD SVG 1.1//EN" "http://www.w3.org/Graphics/SVG/1.1/DTD/svg11.dtd">
<!-- Creator: CorelDRAW 2018 (64-Bit) -->
<svg xmlns="http://www.w3.org/2000/svg" xml:space="preserve" width="54.8667mm" height="54.8664mm" version="1.1" style="shape-rendering:geometricPrecision; text-rendering:geometricPrecision; image-rendering:optimizeQuality; fill-rule:evenodd; clip-rule:evenodd"
viewBox="0 0 221.24 221.23"
 xmlns:xlink="http://www.w3.org/1999/xlink">
 <defs>
  <style type="text/css">
   <![CDATA[
    .fil1 {fill:white;fill-rule:nonzero}
    .fil0 {fill:url(#id0)}
   ]]>
  </style>
  <linearGradient id="id0" gradientUnits="userSpaceOnUse" x1="59.72" y1="235.09" x2="181.47" y2="-62.66">
   <stop offset="0" style="stop-opacity:1; stop-color:#FFC657"/>
   <stop offset="0.321569" style="stop-opacity:1; stop-color:#F62A36"/>
   <stop offset="0.631373" style="stop-opacity:1; stop-color:#C81F90"/>
   <stop offset="0.980392" style="stop-opacity:1; stop-color:#3442DF"/>
   <stop offset="1" style="stop-opacity:1; stop-color:#3442DF"/>
  </linearGradient>
 </defs>
 <g id="Слой_x0020_1">
  <metadata id="CorelCorpID_0Corel-Layer"/>
  <g id="_2549707122928">
   <path class="fil0" d="M220.45 97.49c1.04,8.72 1.04,17.53 0,26.25 -6.06,50.69 -46.02,90.65 -96.71,96.71 -8.72,1.04 -17.53,1.04 -26.25,0 -50.69,-6.06 -90.65,-46.02 -96.71,-96.71 -1.04,-8.72 -1.04,-17.53 0,-26.25 6.06,-50.69 46.02,-90.65 96.71,-96.71 8.72,-1.04 17.53,-1.04 26.25,0 50.69,6.06 90.66,46.02 96.71,96.71z"/>
   <path class="fil1" d="M179.43 77.17c-0.95,-9.26 -4.49,-17.46 -11.38,-24.02 -7.24,-6.91 -16.11,-9.97 -25.81,-10.48 -16.55,-0.9 -55.83,-1.47 -69.63,0.78 -15.76,2.57 -26.1,11.77 -30.45,27.34 -3.36,11.98 -2.69,67.18 -0.73,79.02 2.67,16.19 12.24,26.57 28.28,30.7 11.11,2.87 65.68,2.5 77.92,0.51 16.21,-2.62 26.63,-12.13 30.84,-28.15 3.22,-12.3 2.1,-64.61 0.97,-75.7zm-12.96 70.34l0 0c-1.88,12.3 -10.04,19.91 -22.4,21.26 -11.36,1.25 -62.07,1.93 -72.6,-1.02 -10.07,-2.82 -15.83,-9.74 -17.51,-19.88 -1.6,-9.69 -1.99,-58.09 -0.02,-71.04 1.86,-12.19 10.01,-19.8 22.31,-21.17 12.47,-1.4 57.35,-1.55 69.3,0.28 12.27,1.88 19.88,10.06 21.22,22.44 1.25,11.55 1.61,56.71 -0.29,69.13zm-56.27 -71.37l0 0c-19.94,-0.01 -36.1,16.14 -36.11,36.08 -0.01,19.93 16.14,36.1 36.08,36.11 19.93,0.01 36.1,-16.14 36.11,-36.08 0.01,-19.93 -16.14,-36.1 -36.08,-36.11zm-0.25 59.41l0 0c-12.89,-0.11 -23.25,-10.66 -23.13,-23.55 0.11,-12.89 10.66,-23.25 23.55,-23.13 12.89,0.12 23.25,10.66 23.14,23.55 -0.12,12.89 -10.66,23.25 -23.55,23.13zm46.2 -60.78l0 0c-0.01,4.67 -3.8,8.44 -8.47,8.43 -4.67,-0.01 -8.44,-3.8 -8.43,-8.47 0.01,-4.67 3.8,-8.44 8.47,-8.43 4.67,0.01 8.44,3.81 8.43,8.47z"/>
  </g>
 </g>
</svg>
