<?xml version="1.0" encoding="UTF-8"?>
<!DOCTYPE svg PUBLIC "-//W3C//DTD SVG 1.1//EN" "http://www.w3.org/Graphics/SVG/1.1/DTD/svg11.dtd">
<!-- Creator: CorelDRAW 2018 (64-Bit) -->
<svg xmlns="http://www.w3.org/2000/svg" xml:space="preserve" width="237.901mm" height="73.875mm" version="1.1" style="shape-rendering:geometricPrecision; text-rendering:geometricPrecision; image-rendering:optimizeQuality; fill-rule:evenodd; clip-rule:evenodd"
viewBox="0 0 4001.03 1242.43"
 xmlns:xlink="http://www.w3.org/1999/xlink">
 <defs>
  <style type="text/css">
   <![CDATA[
    .fil2 {fill:#D57D24}
    .fil1 {fill:#503176}
    .fil3 {fill:#D57D24;fill-rule:nonzero}
    .fil0 {fill:#503176;fill-rule:nonzero}
   ]]>
  </style>
 </defs>
 <g id="Слой_x0020_1">
  <metadata id="CorelCorpID_0Corel-Layer"/>
  <path class="fil0" d="M4001.03 434.49c-1.18,-25.29 -4.45,-50.04 -9.52,-74.12l-35.26 35.26 -69.08 -69.1 -69.71 69.71 -69.08 -69.1 -69.71 69.71 -39.13 -39.12c-3.88,23.74 -6.2,47.53 -6.2,71.39l0.04 3.81 46.42 46.42 69.71 -69.71 69.08 69.09 69.71 -69.71 69.08 69.09 43.63 -43.63zm-361.98 53.05c6.88,37.62 19.16,75.41 32.06,113.41l9.85 9.85 69.71 -69.71 69.08 69.09 69.71 -69.71 69.08 69.09 31.31 -31.31c6.03,-29.86 9.46,-61.03 10.95,-94.59l-43.4 43.41 -69.08 -69.1 -69.71 69.71 -69.08 -69.1 -69.71 69.71 -40.77 -40.77zm49.38 164.75c7.05,21.54 13.6,43.13 18.82,64.82l44.57 -44.56 69.08 69.09 69.71 -69.71 46.28 46.29c13.73,-24.01 24.82,-47.7 33.69,-71.73l-12.04 12.04 -69.08 -69.1 -69.71 69.71 -69.09 -69.1 -62.24 62.24zm26.87 105.73c2.31,15.63 3.63,31.29 3.69,47.01l158.14 0.04c15.42,-19.36 29.07,-38.11 41.14,-56.51l-27.66 -27.67 -69.71 69.71 -69.08 -69.1 -36.52 36.52zm266.3 -436.69c-6.26,-21 -13.85,-41.39 -22.55,-61.08l-3.93 3.93 -69.08 -69.1 -69.71 69.71 -69.08 -69.1 -69.71 69.71 -12.94 -12.94c-6.19,21.44 -12.03,42.91 -16.95,64.41l31.03 31.03 69.71 -69.71 69.08 69.09 69.71 -69.71 69.08 69.09 25.33 -25.34zm-76.29 -155.94c-16.57,-23.58 -34.56,-45.44 -53.41,-65.3l-34.42 34.42 -69.08 -69.08 -43.43 43.43c-8.06,35.23 -18.64,70.5 -29.2,105.8l1.78 1.78 69.71 -69.71 69.08 69.09 69.71 -69.71 19.27 19.27zm-78.01 -89.64c-35.25,-32.73 -72.5,-58.55 -108.3,-75.75 -0.06,16.38 -1.24,32.77 -3.27,49.15l32.68 -32.67 69.08 69.08 9.82 -9.82z"/>
  <polygon class="fil0" points="3873.39,878.44 3714.81,879.11 3716.92,995.55 3873.39,996.23 "/>
  <path class="fil1" d="M2375.69 279.45c31.07,0 60.74,5.98 87.94,16.83 27.67,-81.9 70.6,-156.71 125.38,-221.19 -63.99,-31 -135.81,-48.42 -211.7,-48.42 -268.52,0 -486.21,217.71 -486.21,486.23 0,268.52 217.68,486.21 486.21,486.21 268.56,0 486.24,-217.69 486.24,-486.21l-56.95 0.01 48.71 -48.76 -64.76 -64.76c21.6,-21.58 43.17,-43.17 64.76,-64.79l-64.76 -64.76 64.76 -64.79 -63.9 -63.86 -3.9 3.32 -0.01 -0.01c-3.64,3.13 -7.23,6.33 -10.77,9.58l0.61 -0.61c-2.95,2.71 -5.89,5.47 -8.8,8.23l0.02 0.02 -0.02 0.02 43.35 43.32 -43.06 43.08 -0.01 -0.01 -8.67 8.68 -13.04 13.05 64.78 64.76 -43.06 43.08 -0.01 -0.01 -3.73 3.75 -17.98 17.98 64.78 64.76 -43.07 43.07 -5.69 5.69 -77.7 0.01 48.73 -48.77 -64.76 -64.76c21.6,-21.58 43.18,-43.18 64.76,-64.79l-55.68 -55.68 -2.54 4.68 -0.01 -0.01 -0.63 1.18 -0.01 0.02 -0.62 1.17 0 0.01c-2.93,5.54 -5.77,11.15 -8.5,16.82l0.02 0.02 -2.33 4.9 26.88 26.88 -43.06 43.08 -0.01 -0.01 -8.35 8.36 -5.51 5.5 0 0.01 -0.01 0.02 -0.09 0.37 -0.01 0.02 -0.2 0.76 -0.01 0.02 -0.04 0.18 -0.01 0.02 -0.04 0.17 -0.01 0.02 -0.14 0.57 -0.01 0.01 -0.04 0.18 -0.01 0.02 -0.04 0.19 -0.01 0.01 -0.04 0.18 -0.01 0.02 -0.04 0.18 -0.01 0.02 -0.04 0.18 -0.01 0.02 -0.04 0.18 -0.01 0.01 -0.05 0.19 0 0.02 -0.05 0.18 0 0.01 -0.05 0.19 0 0.02 -0.05 0.18 0 0.01 -0.05 0.19 0 0.01 -0.05 0.19 0 0.01 -0.05 0.19 0 0.01 -0.05 0.19 0 0.01 -0.05 0.19 0 0.01 -0.05 0.19 0 0.01 -0.05 0.19 0 0.01 -0.05 0.19 0 0.01 -0.05 0.2 0 0.01 -0.05 0.19 0 0.01 -0.05 0.2 0 0.01 -0.04 0.19 -0.01 0 -0.04 0.19 0 0.01 -0.05 0.19 -0.05 0.2 0 0.01 -0.05 0.19 -0.05 0.2 0 0.01 -0.05 0.2 -0.04 0.2 -0.01 0 -0.04 0.19 -0.01 0 -0.04 0.2 -0.05 0.2 -0.04 0.2 -0.01 0 -0.04 0.2 -0.01 0.01 -0.04 0.19 -0.01 0 -0.04 0.19 0 0.01 -0.04 0.19 -0.01 0.01 -0.04 0.19 -0.01 0.01 -0.04 0.19 -0 0.01 -0.04 0.19 -0.01 0.01 -0.04 0.19 -0.01 0.01 -0.04 0.19 -0.01 0.01 -0.04 0.19 -0.01 0.01 -0.04 0.19 -0.01 0.01 -0.04 0.19 -0.01 0.01 -0.08 0.38 -0.01 0.01 -0.08 0.38 -0.01 0.02 -0.19 0.8 16.91 16.89 0.01 -0.01 43.08 43.08 -43.07 43.07 -5.7 5.71 -176.13 0.02c8.68,45.1 41.13,133.87 75.16,173.93 -42.73,41.51 -101.04,67.08 -165.3,67.08 -131.01,0 -237.24,-106.21 -237.24,-237.24 0,-131.03 106.23,-237.26 237.24,-237.26zm1144.36 -19.45l-0.01 0.01 2.74 4.53 -5.31 5.29 18.66 18.66c2.49,4.78 4.91,9.6 7.23,14.47l0.04 0.03c6.13,12.79 11.71,25.89 16.72,39.25l0.06 0.17 0.05 0.12 0.02 0.05 0.06 0.16 0.06 0.17 0.06 0.17 0.06 0.17 0.05 0.16 0.06 0.16 0.06 0.17 0.06 0.17 0.02 0.06 0.04 0.11 0.06 0.17 0.06 0.16 0.06 0.17 0.04 0.1 0.02 0.07 0.06 0.16 0.06 0.17 0.06 0.17 0.05 0.15 0 0.02 0.06 0.17 0.06 0.16 0.06 0.17 0.06 0.17 0.01 0.03 0.05 0.14 0.06 0.17 0.12 0.33 0.03 0.08 0.03 0.09 0.12 0.33 0.06 0.17 0.05 0.12 -0.01 0.01c0.64,1.77 1.29,3.57 1.89,5.36 -15.47,15.51 -30.97,31.02 -46.49,46.5l64.76 64.76 -48.74 48.78 57.45 0c0,268.52 -217.68,486.21 -486.21,486.21 -80.24,0 -155.97,-19.44 -222.68,-53.9 54.36,-64.41 96.59,-139.41 123.1,-221.46 30.7,14.5 65,22.6 101.2,22.6 129.74,0 235.16,-104.19 237.19,-233.44l25.36 0 5.69 -5.71 0.01 0.01 43.08 -43.08 -43.08 -43.07 -21.71 -21.69 15.68 -15.68 6.03 -6.04 0.01 0.01 43.08 -43.08 -43.08 -43.07 -21.71 -21.69 8.76 -8.76 12.95 -12.97 0.01 0.01 43.08 -43.08 -64.78 -64.76 -0.01 -0.01 27.74 -27.74 4.26 2.98 0.01 -0.01c4.24,2.98 8.41,6.04 12.54,9.17l0.13 0.1 0.12 0.09 0.01 0.01 0.13 0.1 0.12 0.09 0.01 0.01 0.13 0.1 0.12 0.09 0.01 0.01 0.13 0.1 0.12 0.09 0.02 0.01 0.12 0.1c2.35,1.79 4.7,3.59 7.03,5.42l-9.32 9.31 64.78 64.76 -64.77 64.79 64.77 64.76c-21.6,21.62 -43.17,43.21 -64.76,64.79l64.76 64.76 -48.74 48.78 77.7 0 5.71 -5.71 43.08 -43.07 -43.1 -43.08 -0.01 0.01 -21.71 -21.69 21.71 -21.7 0.02 -0.02 43.08 -43.07 -43.1 -43.08 -0.01 0.01 -21.71 -21.69 13.84 -13.84 7.88 -7.89 0.01 0.01 10.06 -10.06 2.92 4.31 0.02 -0.02c3.88,5.79 7.65,11.66 11.29,17.65zm-192.52 -179.34l-0.01 0.01 4.74 2.51 -57.12 57.1 64.77 64.76 -64.76 64.79 64.76 64.76 -43.94 43.98c-1,-1.41 -2.03,-2.8 -3.06,-4.17l-0.09 -0.12 -0.1 -0.13 -0.01 -0.01 -0.09 -0.12 -0.1 -0.12 -0.01 -0.01 -0.09 -0.12 -0.1 -0.13 -0.01 -0.01 -0.1 -0.12 -0.1 -0.13 0 -0.01 -0.1 -0.12 -0.1 -0.13 0 -0.01 -0.1 -0.13 -0.1 -0.12 0 -0.01 -0.1 -0.13 -0.1 -0.12 -0.01 -0.01 -0.1 -0.12 -0.1 -0.12 0 -0.01 -0.1 -0.13 -0.1 -0.13 -0.2 -0.26 -0.1 -0.12 -0.1 -0.12 0 -0.01 -0.11 -0.12 -0.1 -0.12 0 -0.01 -0.1 -0.12 -0.1 -0.13 -0.01 -0.01 -0.1 -0.12 -0.1 -0.13 0 -0.01 -0.1 -0.12 -0.09 -0.12 -0.01 -0.01 -0.1 -0.12 -0.09 -0.12 -0.01 -0.02c-2.13,-2.7 -4.3,-5.34 -6.53,-7.94l-0.1 -0.13 -0.1 -0.12 -0.11 -0.12 -0.1 -0.12 -0.01 0 -0.1 -0.13 -0.1 -0.12 -0.01 -0.01 -0.1 -0.12 -0.1 -0.12 -0.01 -0.01 -0.11 -0.12 -0.1 -0.12 -0.01 -0.01 -0.1 -0.12 -0.1 -0.12 -0.01 -0.01 -0.1 -0.12 -0.1 -0.11 -0.01 -0.01 -0.1 -0.12 -0.1 -0.11 -0.01 -0.01 -0.1 -0.12 -0.1 -0.11 0 -0.01 -0.11 -0.12 -0.1 -0.11 -0.01 -0.01 -0.1 -0.12 -0.1 -0.11 -0.01 -0.01 -0.1 -0.12 -0.1 -0.11 0 -0.01 -0.11 -0.12 -0.1 -0.11 0 -0.01 -0.64 -0.71 0.01 -0.01c-1.13,-1.27 -2.25,-2.53 -3.46,-3.79l20.13 -20.11 -43.1 -43.08 -0.01 0.01 -21.71 -21.69 13.23 -13.23 8.49 -8.5 0.01 0.01 43.08 -43.08 -43.1 -43.08 -21.69 -21.67 -0.01 -0.01 64.81 -64.8 -16.05 -16.02c4.07,1.59 8.11,3.21 12.11,4.88l0.06 0.03 0.39 0.17 0.11 0.04 0.28 0.12 0.28 0.11 0.11 0.05 0.4 0.17 0.05 0.02 0.34 0.14 0.22 0.09 0.17 0.08 0.39 0.16 0 0.01 0.39 0.16 0.17 0.08 0.22 0.09 0.33 0.15 0.06 0.02 0.39 0.17 0.12 0.05 0.27 0.11 0.28 0.13 0.1 0.04 0.39 0.16 0.06 0.03 0.33 0.14 0.23 0.1 0.16 0.06 0.39 0.17 0.01 0.01 0.38 0.16 0.17 0.08 0.22 0.09 0.34 0.15 0.04 0.01 1.55 0.68 0.07 0.04 3.39 1.52 0.03 0.03c7.48,3.39 14.83,6.94 22.1,10.71zm5.21 376.31l7.18 7.17 -4.47 4.47c-0.81,-3.9 -1.7,-7.79 -2.71,-11.64zm-166.07 -426.36l0.03 0.03c2.8,0.36 5.59,0.73 8.37,1.14l43.7 43.69c-21.58,21.62 -43.15,43.22 -64.76,64.8l64.76 64.76 -64.76 64.79 20.64 20.65c-3.37,-1.07 -6.78,-2.06 -10.21,-2.98l-0.22 -0.06 -0.14 -0.04 -0.17 -0.04 -0.19 -0.05 -0.12 -0.04 -0.23 -0.06 -0.08 -0.02 -0.28 -0.07 -0.03 -0.01 -0.31 -0.08 -0.02 0 -0.3 -0.08 -0.06 -0.02 -0.25 -0.06 -0.11 -0.03 -0.21 -0.06 -0.15 -0.04 -0.16 -0.04 -0.19 -0.05 -0.12 -0.03 -0.24 -0.06 -0.07 -0.02 -0.29 -0.07 -0.02 -0.01 -0.31 -0.08 -0.02 -0.01 -0.29 -0.07 -0.07 -0.01 -0.24 -0.06 -0.12 -0.03 -0.19 -0.05 -0.16 -0.04 -0.15 -0.04 -0.21 -0.05 -0.1 -0.03 -0.31 -0.08 -0.3 -0.07 -0.01 -0.01 -0.31 -0.07 -0.04 -0.01 -0.28 -0.07 -0.08 -0.01 -1.17 -0.28 -0.27 -0.06 -0.04 -0.01c-4.78,-1.08 -9.63,-2.01 -14.54,-2.82l-0.1 -0.02 -0.1 -0.01 -0.1 -0.02 -0.1 -0.02 -0.1 -0.01 -0.03 -0.01 -0.07 -0.01 -0.1 -0.02 -0.1 -0.01 -0.1 -0.02 -0.1 -0.01 -0.1 -0.01 0 -0.01 -0.1 -0.01 -0.1 -0.02 -0.1 -0.01 -0.1 -0.01 -0.1 -0.01 -0.07 -0.01 -0.04 -0.01 -0.1 -0.01 -0.1 -0.01 -0.1 -0.01 -0.1 -0.02 -0.13 -0.03 -0.06 -0.01 -0.1 -0.02 -0.1 -0.01 -0.1 -0.01 -0.1 -0.01 -0.1 -0.01 -0.01 -0.01 -0.09 -0.01 -0.1 -0.01 -0.1 -0.02 -0.1 -0.02 -0.1 -0.01 -0.08 -0.01 -0.02 0 -0.1 -0.01 -0.1 -0.01 -0.1 -0.02 -0.1 -0.01 -0.1 -0.01 -0.05 -0.01 -0.05 0 -0.1 -0.01 -0.08 -0.01 -0.01 -0.01 -0.1 -0.01 -0.1 -0.01 -0.04 0 -0.06 -0.02 -0.69 -0.1 0 -0.01 -0.2 -0.02 -0.06 -0.01 -0.04 -0.01 -0.1 -0.01 -0.06 -0.02 -0.04 0 -0.01 0 -0.08 -0.01 -0.1 -0.01 -0.06 -0.01 -0.03 -0.01 -0.1 -0.01 -0.31 -0.04 -0.07 -0.01 -0.03 -0.01 -0.09 -0.01 -0.1 -0.01 -0.28 -0.04 -0.01 0 -0.06 -0.01 -0.03 0 -0.1 -0.01 -0.06 -0.01 -0.04 -0.01 -0.19 -0.02 -0.03 -0.01 -0.06 -0.01 -0.09 -0.02 -0.1 -0.01 0 -0.01 -0.19 -0.02 -0.1 -0.01 -0.1 -0.02 -0.12 -0.01 -0.06 -0.01 0 -0.01 -0.1 -0.01 -0.09 -0.01 -0.01 -0.01 -0.19 -0.02 -0.06 -0.01 -0.03 -0.01 -0.16 -0.02 -0.03 0 -0.03 0 -0.07 -0.02 -0.19 -0.02 -0.01 -0.01 -0.09 -0.01 -0.15 -0.02 -0.13 -0.02 -0.12 -0.01 -0.07 -0.01 -0.01 0 -0.08 -0.01 -0.1 -0.01 -0.19 -0.03 -0.01 -0.01 -0.05 0 -0.26 -0.03 -0.06 -0.01 -0.1 -0.01 -0.09 -0.01 0 -0.01 -0.26 -0.02 -0.13 -0.02 -0.12 -0.01 -0.06 -0.01 -0.15 -0.02 -0.04 0 -0.01 0 -0.25 -0.03 -0.13 -0.01 -0.12 -0.01 -0.26 -0.03 -0.19 -0.02 -0.01 0 -0.01 0 -0.64 -0.08 -0.12 -0.02 -0.06 0 -0.06 -0.01 -0.12 -0.01 -0.06 0 -0.26 -0.03 -0.05 -0.01 -0.12 -0.01 -0.08 -0.01 -0.05 -0.01 -0.12 -0.01 -0.25 -0.02 -0.08 -0.01 -0.04 -0.01 -0.12 -0.01 -0.09 -0.01 -0.03 -0.01 -0.12 -0.01 -0.1 -0.01 -0.03 -0.01 -0.12 -0.01 -0.1 -0.01 -0.02 0 -0.12 -0.01 -0.11 -0.02 -0.02 0 -0.12 -0.01 -0.12 -0.02 -0.01 0 -0.13 -0.01 -0.12 -0.01 0 -0.01 -0.12 -0.01 -0.12 -0.02 -0.01 0 -0.12 -0.01 -0.12 -0.02 -0.01 0 -0.11 -0.01 -0.12 -0.02 -0.02 -0.01 -0.1 -0.01 -0.12 -0.01 -0.03 -0.01 -0.1 -0.01 -0.13 -0.01 -0.03 -0.01 -0.1 -0.01 -0.13 -0.02 -0.03 -0.01 -0.22 -0.01 -0.04 -0.01 -0.08 0 -0.12 -0.01 -0.05 -0.01 -0.08 0 -0.12 -0.01 -0.06 -0.01 -0.07 0 -0.13 -0.01 -0.06 -0.01 -0.06 0 -0.13 -0.01 -0.06 -0.01 -0.06 0 -0.13 -0.02 -0.07 -0.01 -0.06 0 -0.12 -0.01 -0.08 -0.01 -0.05 0 -0.12 -0.02 -0.08 -0.01 -0.04 0 -0.13 -0.02 -0.09 -0.01 -0.03 0 -0.13 -0.01 -0.1 -0.01 -0.03 0 -0.12 -0.01 -0.1 -0.01 -0.02 0 -10.31 -10.31 3.61 -3.61 18.11 -18.11 43.06 -43.07 -64.78 -64.76 0.01 -0.01 -0.01 -0.01 2.55 -2.55 1.06 -1.07 2.58 -2.58 58.59 -58.6 -43.08 -43.06 -0.01 0.01 -5.18 -5.19 0.15 0.01 0.09 0.01 0.06 0 0.16 0.01 0.02 0 0.13 0.01 0.1 0.01 0.05 0 0.15 0.01 0.04 0 0.11 0.01 0.13 0 0.03 0.01 0.15 0.01 0.06 0 0.09 0.01 0.14 0.01 0.01 0 0.15 0.01 0.46 0.03 0.1 0 0.05 0.01 0.15 0.01 0.04 0 0.12 0.01 0.6 0.03 0.01 0.01 0.15 0.01c3.95,0.21 7.88,0.42 11.85,0.73l0.05 0.05c8.1,0.62 16.14,1.42 24.14,2.42zm-146.63 3.48l-0.03 -0.03c6.24,-1.09 12.5,-2.06 18.8,-2.9l0.09 -0.02 0.11 -0.01 0.2 -0.03 0.08 -0.01 0.12 -0.02 0.2 -0.03 0.08 -0.01 0.12 -0.02 0.2 -0.03 0.07 -0.01 0.13 -0.02 0.2 -0.02 0.07 -0.01 0.13 -0.01 0.2 -0.03 0.06 -0.01 0.14 -0.02 0.2 -0.03 0.06 -0.01 0.15 -0.02 0.21 -0.03 0.04 0 0.16 -0.02 0.2 -0.03 0.03 0 0.17 -0.03 0.2 -0.03 0.04 0 0.17 -0.02 0.2 -0.03 0.03 0 0.17 -0.03 0.4 -0.05 0.2 -0.03 0.02 0 0.18 -0.03 0.21 -0.02 0.01 0 0.19 -0.03 0.2 -0.02 0 -0.01 0.2 -0.02 0.2 -0.02 0 -0.01 0.2 -0.02 0.2 -0.02c2.16,-0.26 4.32,-0.51 6.48,-0.73l45.91 45.87c-21.59,21.62 -43.17,43.23 -64.78,64.8l64.78 64.76c-21.58,21.58 -43.16,43.2 -64.77,64.78l15.93 15.93c-3.87,0.91 -7.68,1.93 -11.48,3.01l-0.01 -0.01c-3.7,1.07 -7.38,2.23 -11.01,3.47l0.01 0.02 -2.3 0.79 -0.03 0.01 -0.31 0.1 -0.02 0.01 -0.32 0.11 -0.01 0.01 -0.32 0.11 -0.01 0.01 -0.17 0.06 -0.17 0.06 -0.17 0.06 -0.16 0.06 -0.01 0 -0.16 0.06 -0.17 0.06 -0.01 0 -0.15 0.06 -0.17 0.06 -0.02 0.01 -0.14 0.06 -0.17 0.06 -0.02 0.01 -0.14 0.05 -0.17 0.06 -0.04 0.01c-1.75,0.63 -3.51,1.3 -5.23,1.99l-4.6 -4.6 -0.01 0.01 -21.69 -21.69 2.55 -2.55 1.06 -1.06 18.11 -18.11 43.05 -43.07 -43.08 -43.08 -21.68 -21.67 -0.01 -0.01 2.99 -2.99 0.62 -0.62 2.58 -2.58 58.59 -58.6 -40.27 -40.27 6.11 -1.11zm-73.31 18.88l0.02 0.02 5.39 -1.82 24.32 24.3c-21.58,21.62 -43.17,43.22 -64.78,64.8l64.78 64.76 -64.76 64.78 53.71 53.72 -4.18 3.07 0.01 0.01 -3.98 3.03 -0.12 0.1c-21.49,16.79 -40.02,37.23 -54.65,60.39l-0.05 0.08 -0.05 0.08 -0.05 0.08 -0.05 0.08 -0.05 0.08 -0.05 0.08 -0.04 0.08 -0.05 0.08 -0.05 0.08 -0.05 0.08 -0.05 0.07 -0.05 0.08 -0.05 0.08 -0.05 0.07 -0.05 0.08 -0.05 0.08 -0.09 0.15 -0.02 0.02 -0.03 0.06 -0.05 0.08 -0.05 0.08 -0.05 0.08 -0.05 0.08 -0.05 0.08 -0.09 0.15 -0.05 0.08 -0.05 0.08 -0.05 0.08 -0.05 0.08 -0.05 0.08 0 0.01 -0.09 0.15 -0.05 0.08 -0.05 0.08 -0.05 0.08 -0.09 0.15 -0.01 0 -0.04 0.07 -0.05 0.08 -0.05 0.08 -0.05 0.08 -0.04 0.08 -0.05 0.08 -0.05 0.07 -0.05 0.08 -0.04 0.08 -0.05 0.08 -0.05 0.08 -0.05 0.08 -0.04 0.08 -0.05 0.08 -0.05 0.08 -0.05 0.08 -0.04 0.08 -0.05 0.08 -0.05 0.08 -0.04 0.05 -0.01 0.03 -0.04 0.07 -0.05 0.08 -0.05 0.08 -0.05 0.08 -0.04 0.08 -0.05 0.08 -0.08 0.13 -0.26 0.44 -0.08 0.13 -0.2 0.34 -0.21 0.38 -0.08 0.14 -0.01 0 -0.08 0.14 -0.08 0.14 -0.01 0 -0.08 0.14 -0.08 0.14 -0.01 0.01 -0.07 0.14 -0.08 0.14 -0.01 0.02 -0.08 0.13 -0.02 0.01 -0.06 0.12 -0.01 0.01 -0.07 0.13 -0.08 0.14 -0.01 0.02 -0.07 0.12 -0.08 0.15 -0.02 0.02 -0.07 0.12 -0.08 0.15 -0.02 0.03 -0.07 0.11 -0.08 0.15 -0.02 0.03 -0.06 0.11 -0.08 0.14 -1.96 3.49 -0.07 0.15 -0.01 0 -0.46 0.85 -0.01 0.03 -0.39 0.73 -0.05 0.08 -0.58 1.09 -0.02 0.03 -0.06 0.12 -0.54 1.02 0 0.01 -0.39 0.74 -0.06 0.1 -0.02 0.05 -0.46 0.89 -0.01 0.04 -0.06 0.11 -0.08 0.15 -0.01 0.04 -0.06 0.11 -0.39 0.75 -0.01 0.03 -0.82 1.63 -0.08 0.15 0 0.01 -0.88 1.8 -0.01 -0.02 -0.01 0.02 -0.03 0.07 -0.04 0.08 -0.04 0.08 -0.02 0.03 -0.02 0.05 -0.03 0.08 -0.04 0.08 -0.04 0.08 -0.01 0.01 -0.03 0.06 -0.03 0.08 -0.04 0.08 -0.04 0.08 -0.04 0.08 -0.03 0.08 -0.04 0.08 -0.03 0.06 -0.01 0.01 -0.03 0.08 -0.04 0.08 -0.04 0.08 -0.02 0.05 -0.01 0.03 -0.04 0.08 -0.04 0.08 -0.04 0.08 -0.01 0.04 -0.02 0.04 -0.04 0.08 -0.04 0.08 -0.03 0.08 -0.01 0.02 -0.03 0.06 -0.03 0.08 -0.04 0.08 -0.04 0.08 -0.03 0.08 -0.04 0.08 -0.04 0.08 -0.03 0.06 0 0.01 -0.04 0.08 -0.04 0.08 -0.03 0.08 -0.02 0.05 -0.02 0.03 -0.03 0.08 -0.04 0.08 -0.04 0.07 -0.01 0.04 -0.02 0.04 -0.04 0.08 -0.03 0.08 -0.04 0.08 -0.01 0.01 -0.02 0.06 -0.04 0.08 -0.04 0.08 -0.04 0.08 -0.03 0.08 -0.04 0.08 -0.03 0.08 -0.04 0.06 0 0.01 -0.03 0.08 -0.04 0.08 -0.03 0.08 -0.08 0.16 -0.03 0.08 -0.04 0.08 -0.02 0.04 -0.01 0.04 -0.04 0.08 -0.03 0.08 -0.04 0.08 -0.01 0.02 -18.96 -18.94 64.8 -64.79 -43.09 -43.07 -21.71 -21.69 21.73 -21.73 43.07 -43.07 -64.78 -64.76 -0.02 -0.01 64.8 -64.8 -12.6 -12.58 5.15 -2.1 -0.01 -0.01c5.21,-2.06 10.46,-4.02 15.78,-5.92l0.03 -0.02 0.13 -0.05 0.84 -0.3 0.03 -0.01 0.31 -0.1 0.02 -0.01 0.31 -0.1 0.02 -0.01 3.67 -1.28zm-215.7 148.92l3.13 3.14 -24.66 24.69c6.86,-9.53 14.02,-18.8 21.54,-27.83z"/>
  <path class="fil2" d="M2303.08 993.49c-22.41,11.7 -55.53,17.55 -100.33,17.55 -106.18,0 -158.79,-55.53 -158.79,-164.65l0 -223.06 -78.9 0 0 -111.04 78.9 0 0 -105.2 150 -42.86 0 148.06 109.12 0 0 111.04 -109.12 0 0 196.77c0,50.65 20.47,75.98 60.42,75.98 15.59,0 32.14,-4.87 48.7,-13.61l0 111.02z"/>
  <path class="fil3" d="M466.62 786.96l-317.58 0c4.87,71.12 49.67,106.19 133.46,106.19 53.57,0 100.33,-12.67 141.24,-38l0 108.14c-44.81,24.33 -103.24,36.04 -175.34,36.04 -78.9,0 -139.29,-21.45 -183.14,-65.27 -43.82,-43.84 -65.26,-104.22 -65.26,-182.16 0,-80.83 23.39,-145.14 70.14,-191.9 47.73,-47.73 105.2,-71.1 173.4,-71.1 71.1,0 125.65,21.42 164.61,63.32 38.98,41.88 58.47,99.35 58.47,171.45l0 63.3zm-139.3 -92.52c0,-69.18 -28.26,-104.25 -84.76,-104.25 -24.35,0 -44.81,9.76 -62.33,30.22 -17.55,19.47 -28.26,43.83 -32.14,74.04l179.24 0zm646.9 -193.85l-181.18 487.03 -171.44 0 -172.43 -487.03 160.73 0 84.74 300.01c9.74,34.1 14.62,62.33 16.57,86.7l1.94 0c1.96,-22.41 7.8,-50.66 17.54,-83.78l86.67 -302.93 156.85 0zm456.01 286.36l-317.57 0c4.86,71.12 49.67,106.19 133.45,106.19 53.57,0 100.33,-12.67 141.24,-38l0 108.14c-44.8,24.33 -103.24,36.04 -175.33,36.04 -78.9,0 -139.3,-21.45 -183.14,-65.27 -43.83,-43.84 -65.26,-104.22 -65.26,-182.16 0,-80.83 23.38,-145.14 70.14,-191.9 47.72,-47.73 105.2,-71.1 173.4,-71.1 71.1,0 125.67,21.42 164.63,63.32 38.96,41.88 58.45,99.35 58.45,171.45l0 63.3zm-139.31 -92.52c0,-69.18 -28.26,-104.25 -84.75,-104.25 -24.35,0 -44.82,9.76 -62.35,30.22 -17.51,19.47 -28.24,43.83 -32.14,74.04l179.24 0zm653.74 293.18l-150.02 0 0 -270.81c0,-75 -27.28,-112.97 -80.85,-112.97 -26.3,0 -47.73,9.71 -64.3,30.18 -16.56,19.49 -25.33,44.82 -25.33,75.98l0 277.61 -150.01 0 0 -487.03 150.01 0 0 76.94 1.96 0c36.04,-59.43 87.67,-88.65 156.83,-88.65 108.12,0 161.71,67.2 161.71,200.65l0 298.08z"/>
  <path class="fil0" d="M1608.85 1197.8l-15.16 0 0 -54.48c0,-10.5 -1.65,-18.1 -4.88,-22.77 -3.25,-4.73 -8.69,-7.06 -16.34,-7.06 -6.48,0 -12.01,2.97 -16.54,8.88 -4.55,5.96 -6.84,13.04 -6.84,21.31l0 54.12 -15.17 0 0 -56.32c0,-18.66 -7.2,-28 -21.59,-28 -6.68,0 -12.15,2.78 -16.48,8.39 -4.33,5.6 -6.48,12.87 -6.48,21.81l0 54.12 -15.21 0 0 -94.87 15.21 0 0 15.04 0.38 0c6.7,-11.53 16.53,-17.24 29.44,-17.24 6.48,0 12.13,1.79 16.94,5.4 4.85,3.61 8.13,8.36 9.92,14.23 7.03,-13.09 17.53,-19.63 31.52,-19.63 20.86,0 31.28,12.86 31.28,38.6l0 58.47z"/>
  <path class="fil0" d="M1705.5 1197.8l-15.21 0 0 -14.83 -0.36 0c-6.6,11.36 -16.34,17.05 -29.18,17.05 -9.45,0 -16.84,-2.51 -22.19,-7.51 -5.34,-4.98 -8.01,-11.62 -8.01,-19.92 0,-17.7 10.45,-28.03 31.31,-30.92l28.43 -3.99c0,-16.14 -6.51,-24.2 -19.56,-24.2 -11.41,0 -21.71,3.9 -30.92,11.67l0 -15.55c9.34,-5.95 20.06,-8.87 32.23,-8.87 22.31,0 33.46,11.77 33.46,35.37l0 61.7zm-15.21 -48l-22.87 3.16c-7.04,0.98 -12.36,2.7 -15.93,5.24 -3.58,2.49 -5.38,6.93 -5.38,13.28 0,4.61 1.65,8.4 4.97,11.36 3.3,2.94 7.68,4.4 13.2,4.4 7.51,0 13.75,-2.68 18.65,-7.92 4.93,-5.28 7.37,-12 7.37,-20.09l0 -9.44z"/>
  <path class="fil0" d="M1783.62 1118.27c-2.67,-2.01 -6.5,-3.03 -11.48,-3.03 -6.53,0 -11.93,3.03 -16.3,9.18 -4.33,6.1 -6.51,14.45 -6.51,25.01l0 48.36 -15.21 0 0 -94.87 15.21 0 0 19.54 0.38 0c2.15,-6.68 5.45,-11.86 9.9,-15.62 4.45,-3.73 9.42,-5.58 14.92,-5.58 3.95,0 6.96,0.41 9.09,1.28l0 15.73z"/>
  <polygon class="fil0" points="1878.85,1197.8 1857.54,1197.8 1815.67,1152.22 1815.29,1152.22 1815.29,1197.8 1800.08,1197.8 1800.08,1057.37 1815.29,1057.37 1815.29,1146.38 1815.67,1146.38 1855.49,1102.93 1875.41,1102.93 1831.43,1148.68 "/>
  <path class="fil0" d="M1966.83 1154.16l-66.97 0c0.26,10.55 3.09,18.72 8.54,24.46 5.43,5.72 12.91,8.63 22.41,8.63 10.69,0 20.51,-3.52 29.48,-10.59l0 14.26c-8.35,6.09 -19.38,9.09 -33.06,9.09 -13.41,0 -23.94,-4.3 -31.59,-12.91 -7.68,-8.63 -11.52,-20.76 -11.52,-36.38 0,-14.77 4.19,-26.76 12.54,-36.07 8.39,-9.28 18.79,-13.92 31.18,-13.92 12.44,0 22.02,3.99 28.82,12.03 6.79,7.99 10.17,19.16 10.17,33.43l0 7.98zm-15.55 -12.87c-0.07,-8.78 -2.18,-15.6 -6.33,-20.5 -4.18,-4.86 -9.97,-7.3 -17.39,-7.3 -7.15,0 -13.25,2.56 -18.25,7.7 -4.98,5.1 -8.1,11.83 -9.27,20.11l51.24 0z"/>
  <path class="fil0" d="M2033.84 1196.87c-3.58,1.96 -8.32,2.94 -14.18,2.94 -16.62,0 -24.9,-9.25 -24.9,-27.79l0 -56.13 -16.33 0 0 -12.96 16.33 0 0 -23.15 15.18 -4.92 0 28.07 23.91 0 0 12.96 -23.91 0 0 53.47c0,6.38 1.07,10.88 3.25,13.61 2.15,2.7 5.72,4.05 10.76,4.05 3.83,0 7.12,-1.03 9.9,-3.13l0 12.98z"/>
  <path class="fil0" d="M2061.88 1078.83c-2.68,0 -5.03,-0.93 -6.92,-2.79 -1.92,-1.84 -2.89,-4.17 -2.89,-7.01 0,-2.87 0.97,-5.22 2.89,-7.1 1.89,-1.89 4.24,-2.84 6.92,-2.84 2.79,0 5.16,0.95 7.12,2.84 1.92,1.88 2.9,4.23 2.9,7.1 0,2.72 -0.98,5.02 -2.9,6.93 -1.96,1.92 -4.33,2.87 -7.12,2.87zm7.43 118.96l-15.21 0 0 -94.87 15.21 0 0 94.87z"/>
  <path class="fil0" d="M2178.82 1197.8l-15.21 0 0 -54.12c0,-20.14 -7.34,-30.2 -22.05,-30.2 -7.58,0 -13.87,2.87 -18.83,8.56 -5,5.74 -7.46,12.94 -7.46,21.64l0 54.12 -15.21 0 0 -94.87 15.21 0 0 15.74 0.38 0c7.13,-11.98 17.51,-17.94 31.11,-17.94 10.36,0 18.32,3.32 23.8,10.04 5.51,6.66 8.26,16.38 8.26,29.05l0 57.98z"/>
  <path class="fil0" d="M2288.42 1190.22c0,34.8 -16.67,52.22 -50.03,52.22 -11.72,0 -21.98,-2.2 -30.77,-6.67l0 -15.17c10.69,5.91 20.87,8.9 30.58,8.9 23.34,0 35.01,-12.44 35.01,-37.26l0 -10.38 -0.35 0c-7.24,12.12 -18.13,18.17 -32.64,18.17 -11.79,0 -21.27,-4.21 -28.46,-12.67 -7.2,-8.4 -10.81,-19.71 -10.81,-33.92 0,-16.13 3.89,-28.94 11.64,-38.45 7.75,-9.52 18.37,-14.25 31.81,-14.25 12.81,0 22.26,5.11 28.46,15.35l0.35 0 0 -13.15 15.21 0 0 87.29zm-15.21 -35.3l0 -14.02c0,-7.51 -2.53,-13.96 -7.62,-19.36 -5.11,-5.36 -11.44,-8.06 -19.04,-8.06 -9.4,0 -16.75,3.42 -22.07,10.26 -5.31,6.81 -7.98,16.36 -7.98,28.63 0,10.57 2.56,19.03 7.65,25.37 5.09,6.33 11.86,9.5 20.24,9.5 8.55,0 15.47,-3.04 20.8,-9.09 5.34,-6.06 8.01,-13.82 8.01,-23.24z"/>
  <path class="fil0" d="M3231.21 1194.38l0 -16.31c8.25,6.1 17.37,9.18 27.31,9.18 13.35,0 20.02,-4.47 20.02,-13.35 0,-2.52 -0.57,-4.67 -1.72,-6.42 -1.17,-1.77 -2.68,-3.32 -4.64,-4.69 -1.93,-1.34 -4.23,-2.58 -6.86,-3.64 -2.63,-1.09 -5.45,-2.22 -8.48,-3.41 -4.21,-1.66 -7.87,-3.35 -11.07,-5.03 -3.16,-1.69 -5.82,-3.63 -7.97,-5.72 -2.11,-2.17 -3.73,-4.57 -4.81,-7.29 -1.07,-2.71 -1.6,-5.91 -1.6,-9.55 0,-4.49 0.99,-8.37 3.03,-11.81 2.06,-3.44 4.77,-6.31 8.16,-8.61 3.42,-2.32 7.27,-4.09 11.64,-5.26 4.33,-1.17 8.85,-1.72 13.47,-1.72 8.22,0 15.56,1.39 22.03,4.23l0 15.4c-6.94,-4.59 -14.99,-6.87 -24.06,-6.87 -2.84,0 -5.41,0.33 -7.72,1 -2.27,0.62 -4.24,1.54 -5.87,2.69 -1.62,1.19 -2.87,2.62 -3.8,4.21 -0.88,1.65 -1.33,3.45 -1.33,5.45 0,2.46 0.45,4.52 1.33,6.19 0.93,1.69 2.22,3.18 3.95,4.47 1.7,1.29 3.82,2.46 6.29,3.51 2.48,1.03 5.29,2.18 8.45,3.42 4.18,1.62 7.96,3.26 11.27,4.96 3.34,1.71 6.17,3.6 8.55,5.74 2.34,2.13 4.14,4.59 5.41,7.37 1.26,2.79 1.89,6.08 1.89,9.9 0,4.73 -1.03,8.8 -3.09,12.24 -2.1,3.44 -4.85,6.32 -8.28,8.59 -3.49,2.32 -7.46,3.98 -11.96,5.14 -4.52,1.12 -9.23,1.65 -14.2,1.65 -9.74,0 -18.22,-1.89 -25.35,-5.64z"/>
  <path class="fil0" d="M3392.95 1102.93l-43.64 110.04c-7.79,19.66 -18.72,29.46 -32.79,29.46 -3.96,0 -7.25,-0.4 -9.9,-1.2l0 -13.61c3.25,1.08 6.25,1.67 8.97,1.67 7.67,0 13.41,-4.56 17.24,-13.68l7.6 -18 -37.07 -94.68 16.86 0 25.68 73.01c0.33,0.92 0.95,3.33 1.93,7.22l0.57 0c0.33,-1.5 0.93,-3.83 1.84,-7.06l26.98 -73.17 15.75 0z"/>
  <path class="fil0" d="M3403.51 1194.38l0 -16.31c8.25,6.1 17.4,9.18 27.31,9.18 13.35,0 20.02,-4.47 20.02,-13.35 0,-2.52 -0.57,-4.67 -1.7,-6.42 -1.19,-1.77 -2.7,-3.32 -4.66,-4.69 -1.92,-1.34 -4.25,-2.58 -6.86,-3.64 -2.63,-1.09 -5.45,-2.22 -8.47,-3.41 -4.21,-1.66 -7.89,-3.35 -11.07,-5.03 -3.16,-1.69 -5.83,-3.63 -7.98,-5.72 -2.13,-2.17 -3.73,-4.57 -4.79,-7.29 -1.08,-2.71 -1.63,-5.91 -1.63,-9.55 0,-4.49 1.01,-8.37 3.04,-11.81 2.06,-3.44 4.78,-6.31 8.17,-8.61 3.4,-2.32 7.27,-4.09 11.63,-5.26 4.33,-1.17 8.85,-1.72 13.48,-1.72 8.21,0 15.56,1.39 22.03,4.23l0 15.4c-6.96,-4.59 -14.98,-6.87 -24.06,-6.87 -2.86,0 -5.4,0.33 -7.72,1 -2.27,0.62 -4.25,1.54 -5.88,2.69 -1.61,1.19 -2.89,2.62 -3.8,4.21 -0.89,1.65 -1.32,3.45 -1.32,5.45 0,2.46 0.43,4.52 1.32,6.19 0.91,1.69 2.22,3.18 3.96,4.47 1.72,1.29 3.83,2.46 6.29,3.51 2.48,1.03 5.28,2.18 8.44,3.42 4.17,1.62 7.98,3.26 11.29,4.96 3.32,1.71 6.17,3.6 8.54,5.74 2.34,2.13 4.14,4.59 5.41,7.37 1.26,2.79 1.89,6.08 1.89,9.9 0,4.73 -1.05,8.8 -3.09,12.24 -2.1,3.44 -4.85,6.32 -8.29,8.59 -3.49,2.32 -7.47,3.98 -11.96,5.14 -4.52,1.12 -9.23,1.65 -14.2,1.65 -9.74,0 -18.2,-1.89 -25.35,-5.64z"/>
  <path class="fil0" d="M3533.76 1196.87c-3.58,1.96 -8.32,2.94 -14.16,2.94 -16.64,0 -24.92,-9.25 -24.92,-27.79l0 -56.13 -16.31 0 0 -12.96 16.31 0 0 -23.15 15.18 -4.92 0 28.07 23.91 0 0 12.96 -23.91 0 0 53.47c0,6.38 1.08,10.88 3.25,13.61 2.16,2.7 5.74,4.05 10.76,4.05 3.83,0 7.11,-1.03 9.9,-3.13l0 12.98z"/>
  <path class="fil0" d="M3630.28 1154.16l-66.99 0c0.26,10.55 3.11,18.72 8.56,24.46 5.43,5.72 12.89,8.63 22.42,8.63 10.69,0 20.49,-3.52 29.47,-10.59l0 14.26c-8.36,6.09 -19.39,9.09 -33.08,9.09 -13.41,0 -23.94,-4.3 -31.59,-12.91 -7.68,-8.63 -11.52,-20.76 -11.52,-36.38 0,-14.77 4.21,-26.76 12.56,-36.07 8.37,-9.28 18.79,-13.92 31.17,-13.92 12.43,0 22,3.99 28.81,12.03 6.81,7.99 10.19,19.16 10.19,33.43l0 7.98zm-15.57 -12.87c-0.05,-8.78 -2.17,-15.6 -6.32,-20.5 -4.18,-4.86 -9.95,-7.3 -17.4,-7.3 -7.15,0 -13.23,2.56 -18.23,7.7 -5,5.1 -8.09,11.83 -9.26,20.11l51.22 0z"/>
  <path class="fil0" d="M3787.96 1197.8l-15.18 0 0 -54.48c0,-10.5 -1.65,-18.1 -4.86,-22.77 -3.26,-4.73 -8.69,-7.06 -16.36,-7.06 -6.46,0 -12.01,2.97 -16.53,8.88 -4.55,5.96 -6.82,13.04 -6.82,21.31l0 54.12 -15.19 0 0 -56.32c0,-18.66 -7.2,-28 -21.59,-28 -6.67,0 -12.13,2.78 -16.48,8.39 -4.33,5.6 -6.48,12.87 -6.48,21.81l0 54.12 -15.21 0 0 -94.87 15.21 0 0 15.04 0.4 0c6.68,-11.53 16.53,-17.24 29.42,-17.24 6.48,0 12.15,1.79 16.95,5.4 4.85,3.61 8.13,8.36 9.93,14.23 7.03,-13.09 17.53,-19.63 31.5,-19.63 20.87,0 31.3,12.86 31.3,38.6l0 58.47z"/>
  <path class="fil0" d="M3810.95 1194.38l0 -16.31c8.25,6.1 17.4,9.18 27.33,9.18 13.33,0 20,-4.47 20,-13.35 0,-2.52 -0.57,-4.67 -1.7,-6.42 -1.17,-1.77 -2.7,-3.32 -4.64,-4.69 -1.94,-1.34 -4.24,-2.58 -6.88,-3.64 -2.61,-1.09 -5.43,-2.22 -8.47,-3.41 -4.21,-1.66 -7.87,-3.35 -11.07,-5.03 -3.16,-1.69 -5.81,-3.63 -7.98,-5.72 -2.11,-2.17 -3.73,-4.57 -4.79,-7.29 -1.08,-2.71 -1.62,-5.91 -1.62,-9.55 0,-4.49 1.01,-8.37 3.05,-11.81 2.04,-3.44 4.77,-6.31 8.14,-8.61 3.42,-2.32 7.27,-4.09 11.63,-5.26 4.33,-1.17 8.87,-1.72 13.47,-1.72 8.23,0 15.56,1.39 22.05,4.23l0 15.4c-6.96,-4.59 -14.99,-6.87 -24.08,-6.87 -2.84,0 -5.4,0.33 -7.7,1 -2.28,0.62 -4.24,1.54 -5.89,2.69 -1.6,1.19 -2.87,2.62 -3.78,4.21 -0.89,1.65 -1.34,3.45 -1.34,5.45 0,2.46 0.45,4.52 1.34,6.19 0.91,1.69 2.2,3.18 3.94,4.47 1.72,1.29 3.83,2.46 6.31,3.51 2.46,1.03 5.28,2.18 8.44,3.42 4.18,1.62 7.98,3.26 11.29,4.96 3.32,1.71 6.17,3.6 8.55,5.74 2.34,2.13 4.14,4.59 5.4,7.37 1.27,2.79 1.9,6.08 1.9,9.9 0,4.73 -1.05,8.8 -3.11,12.24 -2.08,3.44 -4.83,6.32 -8.29,8.59 -3.47,2.32 -7.46,3.98 -11.95,5.14 -4.52,1.12 -9.25,1.65 -14.21,1.65 -9.73,0 -18.2,-1.89 -25.35,-5.64z"/>
  <path class="fil3" d="M2410.8 1200.01c-14.02,0 -25.21,-4.43 -33.58,-13.3 -8.35,-8.83 -12.56,-20.61 -12.56,-35.23 0,-15.95 4.36,-28.37 13.06,-37.37 8.74,-8.95 20.49,-13.39 35.32,-13.39 14.14,0 25.18,4.32 33.12,13.05 7.92,8.69 11.88,20.78 11.88,36.19 0,15.16 -4.26,27.26 -12.8,36.39 -8.56,9.11 -20.04,13.66 -34.43,13.66zm1.1 -86.53c-9.74,0 -17.46,3.32 -23.15,9.95 -5.68,6.65 -8.54,15.79 -8.54,27.5 0,11.24 2.89,20.07 8.64,26.55 5.74,6.5 13.44,9.76 23.05,9.76 9.83,0 17.39,-3.21 22.67,-9.55 5.28,-6.38 7.91,-15.4 7.91,-27.14 0,-11.86 -2.63,-21 -7.91,-27.41 -5.28,-6.46 -12.84,-9.66 -22.67,-9.66z"/>
  <path class="fil3" d="M2497.93 1184.07l-0.39 0 0 57.36 -15.2 0 0 -138.5 15.2 0 0 16.65 0.39 0c7.46,-12.58 18.39,-18.85 32.79,-18.85 12.2,0 21.76,4.23 28.61,12.72 6.86,8.49 10.27,19.87 10.27,34.13 0,15.88 -3.85,28.58 -11.57,38.14 -7.7,9.5 -18.27,14.3 -31.67,14.3 -12.31,0 -21.76,-5.32 -28.43,-15.95zm-0.39 -38.28l0 13.27c0,7.83 2.54,14.52 7.66,19.98 5.09,5.47 11.55,8.2 19.37,8.2 9.21,0 16.43,-3.52 21.63,-10.59 5.23,-7.05 7.84,-16.81 7.84,-29.37 0,-10.55 -2.42,-18.82 -7.32,-24.82 -4.88,-5.98 -11.48,-8.99 -19.8,-8.99 -8.85,0 -15.95,3.07 -21.31,9.21 -5.38,6.17 -8.08,13.84 -8.08,23.1z"/>
  <path class="fil3" d="M2670.1 1154.16l-66.98 0c0.26,10.55 3.09,18.72 8.55,24.46 5.43,5.72 12.89,8.63 22.41,8.63 10.69,0 20.5,-3.52 29.47,-10.59l0 14.26c-8.36,6.09 -19.38,9.09 -33.07,9.09 -13.4,0 -23.94,-4.3 -31.6,-12.91 -7.68,-8.63 -11.5,-20.76 -11.5,-36.38 0,-14.77 4.19,-26.76 12.54,-36.07 8.39,-9.28 18.79,-13.92 31.17,-13.92 12.43,0 22.02,3.99 28.81,12.03 6.8,7.99 10.19,19.16 10.19,33.43l0 7.98zm-15.56 -12.87c-0.07,-8.78 -2.18,-15.6 -6.32,-20.5 -4.17,-4.86 -9.97,-7.3 -17.39,-7.3 -7.15,0 -13.25,2.56 -18.25,7.7 -4.99,5.1 -8.1,11.83 -9.27,20.11l51.23 0z"/>
  <path class="fil3" d="M2742.58 1118.27c-2.67,-2.01 -6.48,-3.03 -11.48,-3.03 -6.51,0 -11.93,3.03 -16.28,9.18 -4.33,6.1 -6.51,14.45 -6.51,25.01l0 48.36 -15.21 0 0 -94.87 15.21 0 0 19.54 0.38 0c2.15,-6.68 5.43,-11.86 9.88,-15.62 4.47,-3.73 9.42,-5.58 14.94,-5.58 3.95,0 6.96,0.41 9.08,1.28l0 15.73z"/>
  <path class="fil3" d="M2826.98 1197.8l-15.22 0 0 -14.83 -0.36 0c-6.6,11.36 -16.35,17.05 -29.18,17.05 -9.45,0 -16.84,-2.51 -22.2,-7.51 -5.32,-4.98 -7.99,-11.62 -7.99,-19.92 0,-17.7 10.43,-28.03 31.32,-30.92l28.42 -3.99c0,-16.14 -6.51,-24.2 -19.54,-24.2 -11.43,0 -21.74,3.9 -30.94,11.67l0 -15.55c9.33,-5.95 20.06,-8.87 32.23,-8.87 22.29,0 33.46,11.77 33.46,35.37l0 61.7zm-15.22 -48l-22.85 3.16c-7.07,0.98 -12.37,2.7 -15.95,5.24 -3.58,2.49 -5.38,6.93 -5.38,13.28 0,4.61 1.65,8.4 4.96,11.36 3.28,2.94 7.68,4.4 13.2,4.4 7.51,0 13.75,-2.68 18.65,-7.92 4.94,-5.28 7.37,-12 7.37,-20.09l0 -9.44z"/>
  <path class="fil3" d="M2899.61 1196.87c-3.58,1.96 -8.32,2.94 -14.16,2.94 -16.64,0 -24.92,-9.25 -24.92,-27.79l0 -56.13 -16.31 0 0 -12.96 16.31 0 0 -23.15 15.17 -4.92 0 28.07 23.91 0 0 12.96 -23.91 0 0 53.47c0,6.38 1.07,10.88 3.25,13.61 2.16,2.7 5.74,4.05 10.76,4.05 3.83,0 7.11,-1.03 9.9,-3.13l0 12.98z"/>
  <path class="fil3" d="M2927.65 1078.83c-2.68,0 -5.03,-0.93 -6.92,-2.79 -1.93,-1.84 -2.87,-4.17 -2.87,-7.01 0,-2.87 0.95,-5.22 2.87,-7.1 1.89,-1.89 4.24,-2.84 6.92,-2.84 2.79,0 5.16,0.95 7.12,2.84 1.94,1.88 2.92,4.23 2.92,7.1 0,2.72 -0.98,5.02 -2.92,6.93 -1.96,1.92 -4.33,2.87 -7.12,2.87zm7.44 118.96l-15.21 0 0 -94.87 15.21 0 0 94.87z"/>
  <path class="fil3" d="M3044.59 1197.8l-15.21 0 0 -54.12c0,-20.14 -7.34,-30.2 -22.03,-30.2 -7.6,0 -13.89,2.87 -18.85,8.56 -4.98,5.74 -7.46,12.94 -7.46,21.64l0 54.12 -15.22 0 0 -94.87 15.22 0 0 15.74 0.38 0c7.15,-11.98 17.51,-17.94 31.13,-17.94 10.36,0 18.3,3.32 23.8,10.04 5.5,6.66 8.25,16.38 8.25,29.05l0 57.98z"/>
  <path class="fil3" d="M3154.21 1190.22c0,34.8 -16.67,52.22 -50.03,52.22 -11.74,0 -21.98,-2.2 -30.78,-6.67l0 -15.17c10.69,5.91 20.88,8.9 30.58,8.9 23.34,0 35.01,-12.44 35.01,-37.26l0 -10.38 -0.34 0c-7.24,12.12 -18.11,18.17 -32.64,18.17 -11.79,0 -21.27,-4.21 -28.46,-12.67 -7.2,-8.4 -10.81,-19.71 -10.81,-33.92 0,-16.13 3.88,-28.94 11.65,-38.45 7.73,-9.52 18.36,-14.25 31.79,-14.25 12.8,0 22.27,5.11 28.46,15.35l0.34 0 0 -13.15 15.23 0 0 87.29zm-15.23 -35.3l0 -14.02c0,-7.51 -2.53,-13.96 -7.61,-19.36 -5.09,-5.36 -11.44,-8.06 -19.04,-8.06 -9.38,0 -16.75,3.42 -22.06,10.26 -5.31,6.81 -7.98,16.36 -7.98,28.63 0,10.57 2.56,19.03 7.66,25.37 5.09,6.33 11.84,9.5 20.23,9.5 8.55,0 15.47,-3.04 20.81,-9.09 5.35,-6.06 7.99,-13.82 7.99,-23.24z"/>
 </g>
</svg>
