<?xml version="1.0" encoding="UTF-8"?>
<!DOCTYPE svg PUBLIC "-//W3C//DTD SVG 1.1//EN" "http://www.w3.org/Graphics/SVG/1.1/DTD/svg11.dtd">
<!-- Creator: CorelDRAW 2018 (64-Bit) -->
<svg xmlns="http://www.w3.org/2000/svg" xml:space="preserve" width="75.991mm" height="75.991mm" version="1.1" style="shape-rendering:geometricPrecision; text-rendering:geometricPrecision; image-rendering:optimizeQuality; fill-rule:evenodd; clip-rule:evenodd"
viewBox="0 0 13038.88 13038.88"
 xmlns:xlink="http://www.w3.org/1999/xlink">
 <defs>
  <style type="text/css">
   <![CDATA[
    .fil1 {fill:black}
    .fil0 {fill:white}
   ]]>
  </style>
 </defs>
 <g id="Слой_x0020_1">
  <metadata id="CorelCorpID_0Corel-Layer"/>
  <rect class="fil0" x="-0.01" y="0.01" width="13038.88" height="13038.88"/>
  <path class="fil1" d="M890.06 526.87l-0.02 0 -363.18 0 0 363.18 0 0.02 0 363.18 0 363.18 0 0.02 0 363.18 0 363.19 0 363.18 0 0.02 0 363.18 363.18 0 0.02 0 363.18 0 363.18 0 0.02 0 363.18 0 363.19 0 363.18 0 0.02 0 363.18 0 0 -363.18 0 -0.02 0 -363.18 0 -363.19 0 -363.18 0 -0.02 0 -363.18 0 -363.18 0 -0.02 0 -363.18 -363.18 0 -0.02 0 -363.18 0 -363.19 0 -363.18 0 -0.02 0 -363.18 0 -363.18 0zm11258.77 11258.79l363.19 0 0 -363.19 0 -363.19 -363.19 0 -363.18 0 0 -363.18 0 -363.19 363.18 0 363.19 0 0 -363.18 0 -0.02 0 -363.18 -363.19 0 0 -363.19 -363.18 0 0 -363.18 363.18 0 0 -363.19 363.19 0 0 -363.19 0 -363.18 0 -0.02 0 -363.18 -363.19 0 -363.18 0 0 -363.19 -363.19 0 0 -363.18 0 -0.02 0 -363.18 363.19 0 0 -363.18 363.18 0 0 363.18 363.19 0 0 -363.18 0 -0.02 0 -363.18 -363.19 0 0 -363.19 363.19 0 0 -363.18 0 -0.02 0 -363.18 -363.19 0 0 -363.19 -363.19 0 0 363.19 -363.18 0 0 -363.19 -363.18 0 0 -363.18 0 -0.02 0 -363.18 -363.19 0 -363.19 0 -363.19 0 0 363.18 0 0.02 0 363.18 -363.18 0 0 -363.19 -363.19 0 0 -363.18 0 -363.19 363.19 0 0 -363.19 -363.19 0 0 -363.18 363.19 0 0 -363.19 0 -363.19 -363.19 0 -363.18 0 0 -363.18 0 -363.19 -363.19 0 -363.19 0 0 -363.18 -363.18 0 -0.02 0 -363.18 0 0 363.18 -363.19 0 0 363.19 0 363.18 -363.18 0 0 -363.18 -363.19 0 -363.19 0 0 363.19 363.19 0 0 363.18 -363.19 0 0 363.19 -363.18 0 0 363.18 0 0.02 0 363.18 -363.19 0 0 -363.18 0 -0.02 0 -363.18 0 -363.19 -363.18 0 0 -363.18 363.18 0 363.19 0 0 -363.19 -363.19 0 -363.19 0 0 363.18 -363.18 0 0 -363.18 0 -363.19 -363.19 0 -363.18 0 -0.02 0 -363.18 0 0 363.19 0 363.19 363.18 0 0.02 0 363.18 0 363.19 0 0 363.18 -363.19 0 0 363.19 -363.18 0 0 -363.19 -363.19 0 0 363.19 0 363.18 0 0.02 0 363.18 0 363.19 -363.19 0 -363.19 0 0 363.19 363.19 0 363.19 0 0 363.18 -363.19 0 -363.19 0 0 363.19 -363.18 0 0 363.18 -363.19 0 0 -363.18 0 -363.19 363.19 0 0 -363.19 -363.19 0 0 -363.18 -363.19 0 0 363.19 363.19 0 0 363.18 -363.18 0 -0.02 0 -363.18 0 -363.18 0 0 -363.18 363.18 0 0 -363.19 -363.18 0 -0.02 0 -363.18 0 0 363.18 0 0.02 0 363.18 0 363.19 0 363.19 363.18 0 0.02 0 363.18 0 0 363.18 363.18 0 0 363.19 -363.18 0 -363.18 0 0 -363.19 -363.19 0 0 363.19 0 363.18 0 0.02 0 363.18 0 363.18 0 0.02 0 363.18 363.19 0 0 -363.18 0 -0.02 0 -363.18 363.18 0 0 -363.18 363.18 0 0 363.18 0 363.19 363.19 0 0 -363.19 0 -363.18 363.19 0 0 363.18 0 363.18 0 0.02 0 363.18 0 363.19 363.18 0 0.02 0 363.18 0 0 363.18 -363.18 0 -0.02 0 -363.18 0 0 363.19 -363.19 0 0 -363.19 -363.18 0 0 -363.18 -363.19 0 -363.19 0 0 363.18 -363.18 0 0 363.19 0 363.19 363.18 0 0.02 0 363.18 0 0 -363.19 363.18 0 0.02 0 363.18 0 0 363.19 0 363.18 0 0.02 0 363.18 0 363.19 363.19 0 363.18 0 0.02 0 363.18 0 0 -363.19 363.19 0 363.18 0 0 363.19 -363.18 0 0 363.18 0 0.02 0 363.18 363.18 0 0.02 0 363.18 0 363.19 0 0 363.19 -363.19 0 0 363.19 363.19 0 0 363.18 -363.19 0 -363.18 0 0 -363.19 -363.19 0 0 363.19 363.18 0 0 363.18 -363.18 0 0 363.19 0 363.19 363.19 0 0 -363.19 363.18 0 0 363.19 363.19 0 363.19 0 0 -363.19 0 -363.18 363.18 0 0 363.18 0 363.19 363.19 0 0 -363.19 0 -363.18 363.18 0 0 363.18 363.19 0 363.18 0 0 363.19 363.19 0 0 -363.19 -363.18 0 0 -363.19 -363.19 0 0 -363.18 0 -363.19 -363.19 0 0 363.19 -363.18 0 0 -363.18 0 -0.02 0 -363.18 363.18 0 0.02 0 363.18 0 0 -363.19 0 -363.18 0 -0.02 0 -363.18 -363.18 0 0 -363.19 363.18 0 0 -363.18 363.18 0 0 363.18 363.19 0 0 363.19 363.19 0 0 363.19 363.19 0 0 -363.19 363.18 0 0 363.19 363.19 0 0 363.18 0 363.19 363.18 0 0 363.19 363.19 0 363.19 0 0 363.18 -363.19 0 0 363.19 363.19 0 0 363.18 363.19 0 0 -363.18 0 -0.02 0 -363.18 0 -363.18 363.18 0 363.19 0 363.18 0 0.02 0 363.18 0 363.18 0 0 363.18 -363.18 0 -363.19 0 0 363.18 -363.18 0 0 -363.18 -363.19 0 0 363.19 363.19 0 0 363.18 0 363.19 363.18 0 0.02 0 363.18 0 363.18 0 0.02 0 363.18 0 0 -363.19 -363.18 0 0 -363.18 363.18 0zm0 -2179.12l0 363.18 -363.18 0 -0.02 0 -363.18 0 0 363.19 0 363.19 -363.18 0 0 -363.19 0 -363.18 0 -0.02 0 -363.18 363.18 0 0 -363.19 363.18 0 0 363.19 363.19 0zm0 -1452.75l0 363.19 -363.18 0 -0.02 0 -363.18 0 0 -363.19 363.19 0 0 -363.18 363.18 0 0 363.18zm0 -3268.67l0 363.18 -363.18 0 0 -363.18 363.18 0zm0 -1815.95l363.19 0 0 -363.18 0 -0.02 0 -363.18 0 -363.19 0 -363.18 0 -0.02 0 -363.18 0 -363.18 0 -0.02 0 -363.18 -363.19 0 -363.18 0 -0.02 0 -363.18 0 -363.18 0 -0.02 0 -363.18 0 -363.19 0 -363.19 0 0 363.18 0 0.02 0 363.18 0 363.18 0 0.02 0 363.18 0 363.19 0 363.18 0 0.02 0 363.18 363.19 0 363.19 0 363.18 0 0.02 0 363.18 0 363.18 0 0.02 0 363.18 0zm0 -726.37l0 363.18 -363.18 0 -0.02 0 -363.18 0 -363.18 0 -0.02 0 -363.18 0 -363.19 0 0 -363.18 0 -363.19 0 -363.18 0 -0.02 0 -363.18 0 -363.18 363.19 0 363.18 0 0.02 0 363.18 0 363.18 0 0.02 0 363.18 0 0 363.18 0 363.18 0 0.02 0 363.18 0 363.19zm-363.19 2905.49l0 363.19 -363.18 0 0 -363.19 363.18 0zm0.02 -1452.74l363.18 0 0 -363.19 -363.18 0 -0.02 0 -363.18 0 0 363.19 363.18 0 0.02 0zm-363.19 5084.61l0 363.18 -363.18 0 -0.02 0 -363.18 0 0 -363.18 0 -0.02 0 -363.18 363.18 0 0.02 0 363.18 0 0 363.18 0 0.02zm0 -1089.56l0 363.18 -363.18 0 0 -363.19 -363.19 0 0 363.19 -363.19 0 0 -363.18 0 -0.02 0 -363.18 0 -363.19 363.19 0 0 363.19 363.19 0 0 -363.19 363.18 0 0 363.19 0 363.18 0 0.02zm0 -5447.81l363.19 0 0 -363.19 0 -363.18 0 -0.02 0 -363.18 -363.19 0 -363.18 0 -0.02 0 -363.18 0 0 363.18 0 0.02 0 363.18 0 363.19 363.18 0 0.02 0 363.18 0zm-363.19 4358.25l0 363.18 -363.18 0 0 -363.18 363.18 0zm0 -726.37l0 363.18 -363.18 0 0 -363.18 363.18 0zm0 -726.39l0 363.19 -363.18 0 0 363.18 -363.19 0 0 363.19 363.19 0 0 363.18 -363.19 0 -363.18 0 0 -363.18 -363.19 0 -363.19 0 0 363.19 363.19 0 0 363.18 363.18 0 0 363.19 -363.18 0 0 363.18 0 0.02 0 363.18 -363.19 0 0 -363.18 0 -0.02 0 -363.18 0 -363.19 -363.18 0 0 -363.18 0 -0.02 0 -363.18 -363.19 0 0 363.18 -363.19 0 -363.19 0 0 363.19 -363.18 0 0 -363.18 0 -0.02 0 -363.18 363.18 0 0.02 0 363.18 0 0 -363.18 0 -0.02 0 -363.18 0 -363.19 -363.19 0 0 363.19 -363.18 0 0 -363.19 -363.19 0 -363.18 0 0 -363.18 363.18 0 363.19 0 363.18 0 0.02 0 363.18 0 0 -363.19 -363.18 0 -0.02 0 -363.18 0 -363.19 0 -363.18 0 0 -363.19 0 -363.19 -363.19 0 -363.18 0 0 -363.18 363.18 0 363.19 0 0 -363.19 0 -363.19 -363.19 0 0 363.19 -363.18 0 0 -363.18 0 -0.02 0 -363.18 363.18 0 0 -363.19 363.18 0 0.02 0 363.18 0 363.19 0 0 363.19 363.19 0 0 -363.19 363.18 0 0 -363.18 363.19 0 363.18 0 0 363.18 -363.18 0 0 363.19 -363.19 0 0 363.18 -363.19 0 0 363.19 -363.18 0 0 -363.19 -363.19 0 0 363.19 363.19 0 0 363.19 -363.19 0 0 363.18 0 0.02 0 363.18 363.19 0 363.19 0 0 -363.19 -363.19 0 0 -363.18 363.19 0 0 -363.19 363.18 0 0 -363.18 363.19 0 0 363.18 0 363.19 363.18 0 0 363.18 -363.18 0 -363.19 0 0 363.19 363.19 0 363.18 0 0 363.19 -363.18 0 0 363.18 0 0.02 0 363.18 0 363.19 0 363.19 363.18 0 0.02 0 363.18 0 363.19 0 0 -363.19 363.19 0 0 -363.19 0 -363.18 363.18 0 0 363.18 363.19 0 363.18 0zm0 -726.37l0 363.18 -363.18 0 0 -363.18 -363.19 0 0 -363.19 363.19 0 363.18 0 0 363.19zm-363.18 5810.98l0 363.19 -363.19 0 -363.18 0 -0.02 0 -363.18 0 0 -363.19 0 -363.18 0 -0.02 0 -363.18 363.18 0 0.02 0 363.18 0 363.19 0 0 363.18 0 0.02 0 363.18zm-363.19 -2179.12l0 363.19 -363.18 0 -0.02 0 -363.18 0 0 -363.19 363.18 0 0.02 0 363.18 0zm-363.19 2179.12l363.19 0 0 -363.19 -363.19 0 0 363.19zm0 -5810.98l0 363.18 -363.18 0 -363.19 0 0 363.19 363.19 0 0 363.19 -363.19 0 -363.18 0 0 -363.19 0 -363.18 0 -0.02 0 -363.18 363.18 0 363.19 0 363.18 0zm-363.18 3995.05l0 363.18 -363.19 0 0 -363.18 363.19 0zm-363.19 1452.75l0 363.18 -363.18 0 0 -363.19 -363.19 0 0 -363.18 -363.19 0 0 -363.19 0 -363.18 0 -0.02 0 -363.18 0 -363.19 363.19 0 0 363.19 363.18 0 0 363.19 363.19 0 0 363.18 0 363.19 0 363.18 0 0.02zm0 -7263.74l0 363.18 -363.18 0 0 -363.18 363.18 0zm0 -1452.75l363.19 0 0 -363.19 -363.19 0 0 363.19zm-363.19 1089.56l0 363.18 -363.18 0 0 -363.18 363.18 0zm-363.18 9806.04l363.19 0 0 -363.18 0 -0.02 0 -363.18 -363.19 0 0 -363.19 -363.19 0 -363.18 0 0 -363.18 0 -363.19 -363.19 0 -363.19 0 -363.19 0 0 363.19 0 363.19 363.19 0 363.19 0 363.18 0 0 363.18 -363.18 0 -363.19 0 0 363.19 363.19 0 363.18 0 0.02 0 363.18 0 363.19 0 0 363.18zm0 -4721.42l0 363.18 -363.19 0 -363.19 0 0 363.19 -363.18 0 -363.19 0 0 -363.19 -363.18 0 0 -363.18 -363.19 0 0 -363.19 363.19 0 0 -363.18 363.18 0 0 363.18 0 363.19 363.19 0 363.18 0 0.02 0 363.18 0 0 -363.19 363.19 0 0 363.19zm-363.19 -6174.18l0 363.18 -363.18 0 -0.02 0 -363.18 0 0 -363.18 363.19 0 0 -363.18 363.18 0 0 363.18zm-363.19 11258.79l363.19 0 0 -363.19 -363.19 0 0 363.19zm0 -3268.68l0 363.19 -363.18 0 0 -363.19 363.18 0zm0 -726.37l0 363.18 -363.18 0 0 -363.18 363.18 0zm-363.18 -2542.3l0 363.18 -363.19 0 -363.18 0 -0.02 0 -363.18 0 0 -363.18 0 -0.02 0 -363.18 363.18 0 0 363.19 363.19 0 363.19 0zm-363.19 2542.3l0 363.18 -363.18 0 0 -363.18 363.18 0zm-363.19 -363.19l0 363.19 -363.18 0 0 -363.19 363.18 0zm0 -3631.86l0 363.18 -363.18 0 -363.18 0 0 -363.18 363.18 0 363.18 0zm-363.18 3268.68l0 363.18 -363.18 0 0 -363.18 363.18 0zm0 -1452.75l0 363.18 -363.18 0 0 -363.18 363.18 0zm-363.19 1089.56l0 363.18 -363.18 0 0 -363.18 363.18 0zm0 -1452.74l0 363.18 -363.18 0 0 -363.19 -363.19 0 0 -363.18 -363.19 0 0 363.18 -363.18 0 0 -363.18 0 -363.19 363.19 0 0 -363.18 363.18 0 0 363.18 363.19 0 0 363.19 363.18 0 0 363.18 0 0.02zm0 -2905.51l0 363.19 -363.18 0 0 -363.19 363.18 0zm-363.18 8353.3l0 363.18 -363.19 0 0 -363.18 363.19 0zm0 -1089.56l0 363.19 -363.19 0 -363.18 0 0 -363.19 363.18 0 0 -363.18 363.19 0 0 363.18zm0 -1452.74l0 363.18 -363.19 0 0 363.19 -363.18 0 -0.02 0 -363.18 0 0 -363.19 0 -363.18 363.18 0 0.02 0 363.18 0 363.19 0zm0 -1089.56l0 363.18 -363.19 0 0 363.19 -363.18 0 -0.02 0 -363.18 0 0 -363.19 363.19 0 0 -363.18 0 -0.02 0 -363.18 0 -363.19 363.18 0 363.19 0 0 363.19 -363.19 0 0 363.19 363.19 0zm0 -1452.75l0 363.18 -363.19 0 -363.19 0 0 363.19 -363.18 0 -363.19 0 0 363.19 0 363.18 0 0.02 0 363.18 0 363.19 0 363.18 0 0.02 0 363.18 -363.18 0 0 -363.18 0 -0.02 0 -363.18 0 -363.19 -363.19 0 0 363.19 -363.19 0 -363.18 0 0 -363.19 363.18 0 0 -363.18 363.19 0 363.19 0 0 -363.19 0 -363.19 -363.19 0 0 363.19 -363.19 0 0 -363.19 -363.18 0 0 -363.18 363.18 0 363.19 0 0 -363.19 -363.19 0 -363.18 0 0 -363.18 363.18 0 0 -363.19 -363.18 0 0 -363.19 363.18 0 363.19 0 0 363.19 0 363.19 363.18 0 0 363.18 0 363.19 363.19 0 363.19 0 0 -363.19 363.19 0 0 -363.18 363.18 0 0 363.18 363.19 0zm0 -1815.93l0 363.18 -363.19 0 0 -363.18 363.19 0zm0 -1089.56l0 363.18 -363.19 0 -363.18 0 0 -363.18 0 -363.19 363.18 0 0 363.19 363.19 0zm-363.19 7626.93l0 363.18 -363.18 0 0 -363.18 363.18 0zm-363.19 363.18l0 363.18 -363.18 0 0 -363.18 363.18 0zm0 -726.37l0 363.18 -363.18 0 0 -363.18 363.18 0zm0 -726.37l0 363.18 -363.18 0 0 -363.18 363.18 0zm0 -7263.74l0 363.18 -363.18 0 0 -363.18 363.18 0zm0 -726.39l0 363.19 -363.18 0 0 -363.19 363.18 0zm-363.18 9806.05l0 363.18 -363.19 0 0 -363.18 363.19 0zm0 -2179.12l0 363.18 -363.19 0 -363.18 0 0 -363.18 363.18 0 363.19 0zm0 -3631.86l0 363.18 -363.19 0 0 -363.18 363.19 0zm0 -1089.56l0 363.18 -363.19 0 -363.18 0 -0.02 0 -363.18 0 0 -363.18 363.19 0 0 -363.19 363.18 0 363.19 0 0 363.18 0 0.02zm0 -1089.56l0 363.18 -363.19 0 -363.18 0 0 -363.19 -363.19 0 0 -363.18 363.18 0 0.02 0 363.18 0 0 363.19 363.19 0zm0 -1452.75l0 363.18 -363.19 0 0 -363.18 363.19 0zm-363.19 363.19l0 363.18 -363.18 0 0 -363.18 363.18 0zm-363.19 1452.74l0 363.19 -363.18 0 0 -363.19 363.18 0zm-726.37 4721.44l0 363.18 -363.18 0 0 -363.18 363.18 0zm0 -4358.25l0 363.18 -363.18 0 0 -363.18 363.18 0zm-363.18 7990.11l363.18 0 0 -363.19 0 -363.18 0 -0.02 0 -363.18 0 -363.18 0 -0.02 0 -363.18 0 -363.19 0 -363.19 -363.18 0 -0.02 0 -363.18 0 -363.19 0 -363.18 0 -0.02 0 -363.18 0 -363.18 0 -0.02 0 -363.18 0 0 363.19 0 363.19 0 363.18 0 0.02 0 363.18 0 363.18 0 0.02 0 363.18 0 363.19 363.18 0 0.02 0 363.18 0 363.18 0 0.02 0 363.18 0 363.19 0 363.18 0 0.02 0zm-0.02 -726.37l0 363.18 -363.18 0 -363.19 0 -363.18 0 -0.02 0 -363.18 0 -363.18 0 0 -363.18 0 -0.02 0 -363.18 0 -363.18 0 -0.02 0 -363.18 0 -363.19 363.18 0 363.18 0 0.02 0 363.18 0 363.19 0 363.18 0 0 363.19 0 363.18 0 0.02 0 363.18 0 363.18 0 0.02zm0 -6174.18l0 363.18 -363.18 0 0 -363.18 363.18 0zm0 -726.37l0 363.18 -363.18 0 0 -363.18 363.18 0zm0 -2179.14l-363.18 0 -363.19 0 -363.18 0 -0.02 0 -363.18 0 -363.18 0 0 -363.18 0 -363.19 0 -363.18 0 -0.02 0 -363.18 0 -363.18 363.18 0 363.18 0 0.02 0 363.18 0 363.19 0 363.18 0 0 363.18 0 363.18 0 0.02 0 363.18 0 363.19 0 363.18zm-363.18 2542.32l0 363.19 -363.19 0 0 -363.19 363.19 0zm-363.19 6537.37l363.19 0 0 -363.19 0 -363.18 0 -0.02 0 -363.18 -363.19 0 -363.18 0 -0.02 0 -363.18 0 0 363.18 0 0.02 0 363.18 0 363.19 363.18 0 0.02 0 363.18 0zm0 -6174.18l0 363.18 -363.18 0 0 -363.18 363.18 0zm0 -3268.68l363.19 0 0 -363.19 0 -363.18 0 -0.02 0 -363.18 -363.19 0 -363.18 0 -0.02 0 -363.18 0 0 363.18 0 0.02 0 363.18 0 363.19 363.18 0 0.02 0 363.18 0zm-363.19 2179.12l0 363.18 -363.18 0 0 -363.18 363.18 0zm-726.37 5084.61l363.19 0 0 -363.19 -363.18 0 0 -363.19 -363.19 0 0 363.19 363.18 0 0 363.19z"/>
 </g>
</svg>
