<?xml version="1.0" encoding="UTF-8"?>
<!DOCTYPE svg PUBLIC "-//W3C//DTD SVG 1.1//EN" "http://www.w3.org/Graphics/SVG/1.1/DTD/svg11.dtd">
<!-- Creator: CorelDRAW 2018 (64-Bit) -->
<svg xmlns="http://www.w3.org/2000/svg" xml:space="preserve" width="54.8666mm" height="54.8667mm" version="1.1" style="shape-rendering:geometricPrecision; text-rendering:geometricPrecision; image-rendering:optimizeQuality; fill-rule:evenodd; clip-rule:evenodd"
viewBox="0 0 210.53 210.53"
 xmlns:xlink="http://www.w3.org/1999/xlink">
 <defs>
  <style type="text/css">
   <![CDATA[
    .fil3 {fill:#B5CFE4;fill-rule:nonzero}
    .fil2 {fill:#D1E4F0;fill-rule:nonzero}
    .fil1 {fill:white;fill-rule:nonzero}
    .fil0 {fill:url(#id0);fill-rule:nonzero}
   ]]>
  </style>
  <linearGradient id="id0" gradientUnits="userSpaceOnUse" x1="105.26" y1="0" x2="105.26" y2="209.76">
   <stop offset="0" style="stop-opacity:1; stop-color:#42BCE8"/>
   <stop offset="1" style="stop-opacity:1; stop-color:#23A7DB"/>
  </linearGradient>
 </defs>
 <g id="Слой_x0020_1">
  <metadata id="CorelCorpID_0Corel-Layer"/>
  <g id="_2549694699088">
   <path class="fil0" d="M210.53 105.26c0,58.13 -47.13,105.26 -105.26,105.26 -58.13,0 -105.26,-47.13 -105.26,-105.26 0,-58.14 47.13,-105.26 105.26,-105.26 58.14,0 105.26,47.13 105.26,105.26z"/>
   <g>
    <path class="fil1" d="M156.48 60.55l-18.8 94.79c0,0 -2.63,6.57 -9.86,3.42l-43.39 -33.26 -15.78 -7.62 -26.56 -8.94c0,0 -4.08,-1.45 -4.47,-4.6 -0.39,-3.16 4.6,-4.86 4.6,-4.86l105.57 -41.41c0,0 8.68,-3.81 8.68,2.5z"/>
    <path class="fil2" d="M81.1 154.28c0,0 -1.27,-0.12 -2.84,-5.12 -1.58,-5 -9.6,-31.29 -9.6,-31.29l63.76 -40.49c0,0 3.68,-2.23 3.55,0 0,0 0.66,0.39 -1.31,2.24 -1.97,1.84 -50.09,45.1 -50.09,45.1l-3.47 29.57z"/>
    <path class="fil3" d="M101.07 138.25l-17.16 15.65c0,0 -1.34,1.02 -2.81,0.38l3.29 -29.06 16.68 13.04z"/>
   </g>
  </g>
 </g>
</svg>
