<?xml version="1.0" encoding="UTF-8"?>
<!DOCTYPE svg PUBLIC "-//W3C//DTD SVG 1.1//EN" "http://www.w3.org/Graphics/SVG/1.1/DTD/svg11.dtd">
<!-- Creator: CorelDRAW 2018 (64-Bit) -->
<svg xmlns="http://www.w3.org/2000/svg" xml:space="preserve" width="54.8666mm" height="54.8667mm" version="1.1" style="shape-rendering:geometricPrecision; text-rendering:geometricPrecision; image-rendering:optimizeQuality; fill-rule:evenodd; clip-rule:evenodd"
viewBox="0 0 196.51 196.51"
 xmlns:xlink="http://www.w3.org/1999/xlink">
 <defs>
  <style type="text/css">
   <![CDATA[
    .fil1 {fill:white}
    .fil0 {fill:#77499A;fill-rule:nonzero}
    .fil2 {fill:white;fill-rule:nonzero}
   ]]>
  </style>
 </defs>
 <g id="Слой_x0020_1">
  <metadata id="CorelCorpID_0Corel-Layer"/>
  <g id="_2549693413024">
   <path class="fil0" d="M-0 98.25c0,-54.26 43.99,-98.25 98.25,-98.25 54.26,0 98.25,43.99 98.25,98.25 0,54.26 -43.99,98.25 -98.25,98.25 -54.26,0 -98.25,-43.99 -98.25,-98.25z"/>
   <path class="fil1" d="M117.43 131.8c4.98,0.05 10.81,-4.75 12.5,-9.51 1.62,-4.58 -1.81,-6.4 -4.52,-8.58 -2,-1.61 -4.13,-3.05 -6.23,-4.52 -4.19,-2.94 -8.02,-3.17 -11.14,1.56 -1.75,2.66 -4.21,2.77 -6.78,1.61 -7.08,-3.21 -12.55,-8.16 -15.75,-15.36 -1.42,-3.18 -1.4,-6.04 1.92,-8.29 1.75,-1.19 3.52,-2.6 3.38,-5.2 -0.18,-3.39 -8.42,-14.74 -11.68,-15.93 -1.35,-0.49 -2.69,-0.46 -4.06,-0 -7.63,2.57 -10.79,8.84 -7.76,16.27 9.03,22.17 24.92,37.6 46.8,47.02 1.25,0.54 2.63,0.75 3.33,0.94z"/>
   <path class="fil1" d="M101.34 66.38c-1.16,0.17 -3.56,-0.8 -3.71,1.8 -0.1,1.75 1.92,1.46 3.24,1.67 15.99,2.46 23.37,10.06 25.4,26.17 0.19,1.49 -0.37,3.73 1.76,3.77 2.22,0.04 1.68,-2.16 1.7,-3.65 0.19,-15.17 -13.04,-29.23 -28.4,-29.75z"/>
   <path class="fil1" d="M121.86 93.41c0.08,-9.41 -7.98,-17.97 -17.85,-19.15 -1.54,-0.18 -3.57,-0.91 -3.93,1.22 -0.38,2.24 1.89,2.01 3.34,2.34 9.88,2.21 13.32,5.8 14.94,15.6 0.24,1.43 -0.24,3.65 2.19,3.28 1.8,-0.27 1.15,-2.18 1.3,-3.29z"/>
   <path class="fil1" d="M114.35 91.63c0.07,-4.54 -5.06,-9.79 -9.44,-9.68 -1.03,0.03 -2.03,0.14 -2.41,1.23 -0.57,1.64 0.63,2.03 1.84,2.23 4.05,0.65 6.18,3.04 6.59,7.08 0.11,1.1 0.81,1.99 1.86,1.86 1.47,-0.17 1.6,-1.48 1.56,-2.72z"/>
   <path class="fil2" d="M138.07 47.55c-10.36,-5.11 -22.64,-7.43 -38.65,-7.43l-1.09 0c-0.94,0 -1.92,0 -2.86,0.04l-1.52 0.04c-13.11,0.33 -27.93,0.69 -39.45,9.16 -15.03,11.12 -16.73,31.69 -16.73,46.22 0,29.67 9.82,47.81 29.2,54.12l0 11.05c0.25,5.87 1.7,6.59 2.46,6.99 0.33,0.15 0.76,0.36 1.41,0.36 2.14,0 6.66,-2.21 18.22,-15.47l0.76 0c2.25,0 4.53,-0.04 6.85,-0.11l2.1 -0.04c6.41,-0.14 13.04,-0.33 19.67,-1.2 8.01,-1.05 19.6,-3.33 27.85,-11.27 12.57,-12.1 12.57,-32.35 12.57,-44.44 0,-13.19 0,-37.78 -20.79,-48.03zm1.96 85.92l0 0c-6.34,6.09 -16.05,7.97 -22.78,8.84 -6.12,0.8 -12.24,0.98 -18.69,1.12l-2.14 0.04 -0.51 0c-1.99,0.07 -3.91,0.11 -5.87,0.11 -2.54,3.04 -5.18,6.09 -7.68,8.84 -4.17,4.6 -7.97,8.37 -10.18,9.89 -0.07,-0.54 -0.11,-1.12 -0.14,-1.67l0 -9.56 0 -9.31c-0.07,0 -0.15,0 -0.22,-0.04 -1.7,-0.43 -3.33,-1.01 -4.85,-1.7 -13.55,-5.87 -20.14,-20.47 -20.14,-44.44 0,-13.62 1.49,-30.35 13.08,-38.94 9.2,-6.77 22.49,-7.1 34.27,-7.39l1.56 -0.04c0.91,-0.04 1.81,-0.04 2.68,-0.04 14.89,-0.11 26.37,1.92 35.68,6.48 14.52,7.17 15.72,24.38 15.72,39.92 0,14.42 -0.72,29.2 -9.78,37.89z"/>
  </g>
 </g>
</svg>
