<?xml version="1.0" encoding="UTF-8"?>
<!DOCTYPE svg PUBLIC "-//W3C//DTD SVG 1.1//EN" "http://www.w3.org/Graphics/SVG/1.1/DTD/svg11.dtd">
<!-- Creator: CorelDRAW 2018 (64-Bit) -->
<svg xmlns="http://www.w3.org/2000/svg" xml:space="preserve" width="54.8665mm" height="54.8666mm" version="1.1" style="shape-rendering:geometricPrecision; text-rendering:geometricPrecision; image-rendering:optimizeQuality; fill-rule:evenodd; clip-rule:evenodd"
viewBox="0 0 237.57 237.57"
 xmlns:xlink="http://www.w3.org/1999/xlink">
 <defs>
  <style type="text/css">
   <![CDATA[
    .fil1 {fill:white}
    .fil0 {fill:#4680C1;fill-rule:nonzero}
   ]]>
  </style>
 </defs>
 <g id="Слой_x0020_1">
  <metadata id="CorelCorpID_0Corel-Layer"/>
  <g id="_2549846677168">
   <path class="fil0" d="M237.57 118.78c0,65.6 -53.18,118.78 -118.78,118.78 -65.6,0 -118.78,-53.18 -118.78,-118.78 0,-65.6 53.18,-118.78 118.78,-118.78 65.6,0 118.78,53.18 118.78,118.78z"/>
   <path class="fil1" d="M189.77 82.44c1.08,-3.59 0,-6.24 -5.13,-6.24l-16.97 0c-4.31,0 -6.3,2.28 -7.38,4.8 0,0 -8.63,21.03 -20.85,34.69 -3.95,3.95 -5.75,5.21 -7.91,5.21 -1.08,0 -2.64,-1.26 -2.64,-4.85l0 -33.61c0,-4.31 -1.25,-6.24 -4.85,-6.24l-26.66 0c-2.7,0 -4.32,2 -4.32,3.9 0,4.09 6.11,5.03 6.74,16.54l0 24.98c0,5.48 -0.99,6.47 -3.15,6.47 -5.75,0 -19.74,-21.12 -28.04,-45.3 -1.63,-4.7 -3.26,-6.6 -7.59,-6.6l-16.97 0c-4.85,0 -5.82,2.28 -5.82,4.8 0,4.49 5.75,26.78 26.78,56.26 14.02,20.13 33.77,31.04 51.75,31.04 10.78,0 12.12,-2.42 12.12,-6.6l0 -15.21c0,-4.85 1.02,-5.82 4.44,-5.82 2.51,0 6.83,1.26 16.9,10.96 11.5,11.5 13.4,16.66 19.87,16.66l16.97 0c4.85,0 7.27,-2.42 5.87,-7.21 -1.53,-4.77 -7.02,-11.68 -14.31,-19.88 -3.96,-4.67 -9.89,-9.71 -11.68,-12.22 -2.52,-3.23 -1.8,-4.67 0,-7.55 0,0 20.67,-29.12 22.83,-39z"/>
  </g>
 </g>
</svg>
