<?xml version="1.0" encoding="UTF-8"?>
<!DOCTYPE svg PUBLIC "-//W3C//DTD SVG 1.1//EN" "http://www.w3.org/Graphics/SVG/1.1/DTD/svg11.dtd">
<!-- Creator: CorelDRAW 2018 (64-Bit) -->
<svg xmlns="http://www.w3.org/2000/svg" xml:space="preserve" width="54.8667mm" height="54.8667mm" version="1.1" style="shape-rendering:geometricPrecision; text-rendering:geometricPrecision; image-rendering:optimizeQuality; fill-rule:evenodd; clip-rule:evenodd"
viewBox="0 0 194.93 194.93"
 xmlns:xlink="http://www.w3.org/1999/xlink">
 <defs>
  <style type="text/css">
   <![CDATA[
    .fil1 {fill:#F0F2F2}
    .fil0 {fill:#07BA07;fill-rule:nonzero}
   ]]>
  </style>
 </defs>
 <g id="Слой_x0020_1">
  <metadata id="CorelCorpID_0Corel-Layer"/>
  <g id="_2549704941712">
   <path class="fil0" d="M-0 97.46c0,-53.83 43.64,-97.46 97.46,-97.46 53.83,0 97.47,43.64 97.47,97.46 0,53.83 -43.64,97.46 -97.47,97.46 -53.83,0 -97.46,-43.64 -97.46,-97.46z"/>
   <g>
    <path class="fil1" d="M124.96 108.79c-1.41,-0.78 -8.36,-4.52 -9.66,-5.05 -1.3,-0.53 -2.25,-0.81 -3.27,0.6 -1.01,1.4 -3.9,4.54 -4.77,5.47 -0.88,0.93 -1.72,1.02 -3.14,0.24 -1.41,-0.77 -5.99,-2.47 -11.31,-7.58 -4.14,-3.98 -6.85,-8.8 -7.64,-10.27 -0.79,-1.47 -0.01,-2.22 0.74,-2.91 0.67,-0.62 1.51,-1.63 2.26,-2.44 0.75,-0.81 1.01,-1.4 1.53,-2.35 0.52,-0.94 0.31,-1.79 -0.03,-2.53 -0.33,-0.73 -2.95,-7.93 -4.04,-10.86 -1.09,-2.93 -2.31,-2.49 -3.15,-2.52 -0.84,-0.03 -1.8,-0.19 -2.75,-0.22 -0.96,-0.03 -2.54,0.27 -3.91,1.66 -1.38,1.39 -5.23,4.74 -5.49,11.82 -0.27,7.09 4.64,14.13 5.32,15.11 0.68,0.99 9.36,16.35 23.78,22.67 14.43,6.32 14.51,4.39 17.15,4.25 2.65,-0.14 8.65,-3.17 9.98,-6.48 1.33,-3.32 1.43,-6.2 1.1,-6.81 -0.34,-0.61 -1.29,-1.01 -2.7,-1.78zm-26.46 34.15l0 0c-9.53,0 -18.42,-2.86 -25.84,-7.77l-18.05 5.78 5.87 -17.44c-5.62,-7.74 -8.94,-17.26 -8.94,-27.54 0,-25.91 21.07,-46.97 46.97,-46.97 25.9,0 46.98,21.07 46.98,46.97 0,25.9 -21.07,46.97 -46.98,46.97zm0 -103.4l0 0c-31.16,0 -56.42,25.26 -56.42,56.43 0,10.66 2.96,20.63 8.1,29.14l-10.19 30.27 31.24 -10c8.09,4.47 17.38,7.02 27.27,7.02 31.17,0 56.43,-25.26 56.43,-56.43 0,-31.16 -25.26,-56.43 -56.43,-56.43z"/>
   </g>
  </g>
 </g>
</svg>
